<?xml version="1.0" encoding="UTF-8"?>
<svg xmlns="http://www.w3.org/2000/svg" xmlns:xlink="http://www.w3.org/1999/xlink" viewBox="0 0 103.29 114.72">
  <defs>
    <style>
      .cls-1 {
        fill: url(#_Áåçûìÿííûé_ãðàäèåíò_226-2);
      }

      .cls-1, .cls-2, .cls-3, .cls-4, .cls-5, .cls-6, .cls-7, .cls-8, .cls-9, .cls-10, .cls-11, .cls-12, .cls-13, .cls-14, .cls-15, .cls-16, .cls-17, .cls-18, .cls-19, .cls-20, .cls-21, .cls-22, .cls-23, .cls-24, .cls-25, .cls-26, .cls-27, .cls-28, .cls-29, .cls-30, .cls-31, .cls-32, .cls-33, .cls-34, .cls-35, .cls-36, .cls-37, .cls-38, .cls-39, .cls-40, .cls-41, .cls-42 {
        fill-rule: evenodd;
      }

      .cls-1, .cls-4, .cls-6, .cls-7, .cls-8, .cls-13, .cls-15, .cls-17, .cls-28, .cls-33, .cls-37 {
        mix-blend-mode: multiply;
      }

      .cls-1, .cls-6, .cls-7, .cls-8, .cls-33 {
        opacity: .4;
      }

      .cls-2 {
        fill: url(#_Áåçûìÿííûé_ãðàäèåíò_50);
      }

      .cls-3 {
        fill: url(#_Áåçûìÿííûé_ãðàäèåíò_107-3);
      }

      .cls-4 {
        fill: url(#_Áåçûìÿííûé_ãðàäèåíò_16-3);
      }

      .cls-4, .cls-13, .cls-17 {
        opacity: .71;
      }

      .cls-5 {
        fill: url(#_Áåçûìÿííûé_ãðàäèåíò_253);
      }

      .cls-6 {
        fill: url(#_Áåçûìÿííûé_ãðàäèåíò_226);
      }

      .cls-7 {
        fill: url(#_Áåçûìÿííûé_ãðàäèåíò_271);
      }

      .cls-8 {
        fill: url(#_Áåçûìÿííûé_ãðàäèåíò_271-2);
      }

      .cls-9 {
        fill: url(#_Áåçûìÿííûé_ãðàäèåíò_166);
      }

      .cls-10 {
        fill: url(#_Áåçûìÿííûé_ãðàäèåíò_58);
      }

      .cls-11 {
        fill: url(#_Áåçûìÿííûé_ãðàäèåíò_188);
      }

      .cls-43 {
        isolation: isolate;
      }

      .cls-12 {
        fill: url(#_Áåçûìÿííûé_ãðàäèåíò_107-2);
      }

      .cls-13 {
        fill: url(#_Áåçûìÿííûé_ãðàäèåíò_16-2);
      }

      .cls-14 {
        fill: url(#_Áåçûìÿííûé_ãðàäèåíò_39);
      }

      .cls-15 {
        fill: url(#_Áåçûìÿííûé_ãðàäèåíò_21);
      }

      .cls-15, .cls-26, .cls-28 {
        opacity: .5;
      }

      .cls-16 {
        fill: url(#_Áåçûìÿííûé_ãðàäèåíò_144);
      }

      .cls-17 {
        fill: url(#_Áåçûìÿííûé_ãðàäèåíò_16);
      }

      .cls-18 {
        fill: url(#_Áåçûìÿííûé_ãðàäèåíò_69);
      }

      .cls-19 {
        fill: url(#_Áåçûìÿííûé_ãðàäèåíò_250);
      }

      .cls-20 {
        fill: url(#_Áåçûìÿííûé_ãðàäèåíò_64);
      }

      .cls-21 {
        fill: url(#_Áåçûìÿííûé_ãðàäèåíò_159);
      }

      .cls-22 {
        fill: #ffa5f7;
      }

      .cls-23 {
        fill: url(#_Áåçûìÿííûé_ãðàäèåíò_212);
      }

      .cls-24 {
        fill: url(#_Áåçûìÿííûé_ãðàäèåíò_600);
      }

      .cls-24, .cls-26 {
        mix-blend-mode: screen;
      }

      .cls-25 {
        fill: url(#_Áåçûìÿííûé_ãðàäèåíò_224);
      }

      .cls-26 {
        fill: url(#_Áåçûìÿííûé_ãðàäèåíò_234);
      }

      .cls-27 {
        fill: url(#_Áåçûìÿííûé_ãðàäèåíò_107);
      }

      .cls-28 {
        fill: url(#_Áåçûìÿííûé_ãðàäèåíò_21-2);
      }

      .cls-29 {
        fill: url(#_Áåçûìÿííûé_ãðàäèåíò_212-2);
      }

      .cls-30 {
        fill: url(#_Áåçûìÿííûé_ãðàäèåíò_59);
      }

      .cls-31 {
        fill: url(#_Áåçûìÿííûé_ãðàäèåíò_165);
      }

      .cls-32 {
        fill: url(#_Áåçûìÿííûé_ãðàäèåíò_35);
      }

      .cls-33 {
        fill: url(#_Áåçûìÿííûé_ãðàäèåíò_271-3);
      }

      .cls-34 {
        fill: url(#_Áåçûìÿííûé_ãðàäèåíò_31);
      }

      .cls-35 {
        fill: url(#_Áåçûìÿííûé_ãðàäèåíò_10);
      }

      .cls-36 {
        fill: url(#_Áåçûìÿííûé_ãðàäèåíò_73);
      }

      .cls-37 {
        fill: url(#_Áåçûìÿííûé_ãðàäèåíò_19);
        opacity: .89;
      }

      .cls-38 {
        fill: url(#_Áåçûìÿííûé_ãðàäèåíò_50-2);
      }

      .cls-39 {
        fill: #e5bdfa;
      }

      .cls-40 {
        fill: url(#_Áåçûìÿííûé_ãðàäèåíò_200);
      }

      .cls-41 {
        fill: url(#_Áåçûìÿííûé_ãðàäèåíò_35-2);
      }

      .cls-42 {
        fill: url(#_Áåçûìÿííûé_ãðàäèåíò_182);
      }
    </style>
    <linearGradient id="_Áåçûìÿííûé_ãðàäèåíò_64" data-name="Áåçûìÿííûé ãðàäèåíò 64" x1="87.04" y1="38.94" x2="91.08" y2="13.37" gradientUnits="userSpaceOnUse">
      <stop offset="0" stop-color="#8931b3"/>
      <stop offset="1" stop-color="#8e8cff"/>
    </linearGradient>
    <linearGradient id="_Áåçûìÿííûé_ãðàäèåíò_59" data-name="Áåçûìÿííûé ãðàäèåíò 59" x1="110.15" y1="126.29" x2="111.55" y2="117.42" gradientTransform="translate(170.95 245.91) rotate(-170.07)" gradientUnits="userSpaceOnUse">
      <stop offset="0" stop-color="#8e8cff"/>
      <stop offset="1" stop-color="#8931b3"/>
    </linearGradient>
    <radialGradient id="_Áåçûìÿííûé_ãðàäèåíò_50" data-name="Áåçûìÿííûé ãðàäèåíò 50" cx="35.52" cy="33.91" fx="35.52" fy="33.91" r="71.44" gradientUnits="userSpaceOnUse">
      <stop offset="0" stop-color="#ffb8e2"/>
      <stop offset=".22" stop-color="#fcb7e2"/>
      <stop offset=".33" stop-color="#f5b4e5"/>
      <stop offset=".42" stop-color="#e7b0e9"/>
      <stop offset=".49" stop-color="#d5aaef"/>
      <stop offset=".55" stop-color="#bda2f7"/>
      <stop offset=".58" stop-color="#ae9dfc"/>
      <stop offset=".64" stop-color="#a896fc"/>
      <stop offset=".72" stop-color="#9982fc"/>
      <stop offset=".81" stop-color="#8063fd"/>
      <stop offset=".91" stop-color="#5e37fe"/>
      <stop offset=".92" stop-color="#5e37ff"/>
      <stop offset=".99" stop-color="#5e9aff"/>
    </radialGradient>
    <linearGradient id="_Áåçûìÿííûé_ãðàäèåíò_21" data-name="Áåçûìÿííûé ãðàäèåíò 21" x1="6.03" y1="29.2" x2="25.85" y2="29.2" gradientUnits="userSpaceOnUse">
      <stop offset="0" stop-color="#fff"/>
      <stop offset=".17" stop-color="#dbcfea"/>
      <stop offset=".36" stop-color="#b9a2d6"/>
      <stop offset=".55" stop-color="#9e7fc7"/>
      <stop offset=".72" stop-color="#8b66bc"/>
      <stop offset=".87" stop-color="#8057b5"/>
      <stop offset="1" stop-color="#7c52b3"/>
    </linearGradient>
    <linearGradient id="_Áåçûìÿííûé_ãðàäèåíò_19" data-name="Áåçûìÿííûé ãðàäèåíò 19" x1="60.95" y1="62.01" x2="95.38" y2="62.01" gradientUnits="userSpaceOnUse">
      <stop offset="0" stop-color="#7c52b3"/>
      <stop offset=".13" stop-color="#8057b5"/>
      <stop offset=".28" stop-color="#8b66bc"/>
      <stop offset=".45" stop-color="#9e7fc7"/>
      <stop offset=".64" stop-color="#b9a2d6"/>
      <stop offset=".83" stop-color="#dbcfea"/>
      <stop offset="1" stop-color="#fff"/>
    </linearGradient>
    <radialGradient id="_Áåçûìÿííûé_ãðàäèåíò_600" data-name="Áåçûìÿííûé ãðàäèåíò 600" cx="16.97" cy="18.14" fx="16.97" fy="18.14" r="62.36" gradientUnits="userSpaceOnUse">
      <stop offset="0" stop-color="#ffffd9"/>
      <stop offset="1" stop-color="#000"/>
    </radialGradient>
    <linearGradient id="_Áåçûìÿííûé_ãðàäèåíò_10" data-name="Áåçûìÿííûé ãðàäèåíò 10" x1="33.41" y1="102.17" x2="36.94" y2="79.9" gradientUnits="userSpaceOnUse">
      <stop offset="0" stop-color="#6d109d"/>
      <stop offset="1" stop-color="#8e8cff"/>
    </linearGradient>
    <linearGradient id="_Áåçûìÿííûé_ãðàäèåíò_31" data-name="Áåçûìÿííûé ãðàäèåíò 31" x1="19.35" y1="32.38" x2="3.72" y2="18.8" gradientUnits="userSpaceOnUse">
      <stop offset="0" stop-color="#c98eff"/>
      <stop offset="1" stop-color="#8931b3"/>
    </linearGradient>
    <linearGradient id="_Áåçûìÿííûé_ãðàäèåíò_35" data-name="Áåçûìÿííûé ãðàäèåíò 35" x1="89.94" y1="68.89" x2="60.78" y2="52.06" gradientTransform="translate(7.29 -9.49) rotate(7.41)" gradientUnits="userSpaceOnUse">
      <stop offset="0" stop-color="#5400b3"/>
      <stop offset="1" stop-color="#f2c0ff"/>
    </linearGradient>
    <linearGradient id="_Áåçûìÿííûé_ãðàäèåíò_21-2" data-name="Áåçûìÿííûé ãðàäèåíò 21" x1="40.56" y1="16.22" x2="62.95" y2="16.22" xlink:href="#_Áåçûìÿííûé_ãðàäèåíò_21"/>
    <linearGradient id="_Áåçûìÿííûé_ãðàäèåíò_107" data-name="Áåçûìÿííûé ãðàäèåíò 107" x1="78.02" y1="81.04" x2="78.02" y2="41.54" gradientTransform="translate(7.29 -9.49) rotate(7.41)" gradientUnits="userSpaceOnUse">
      <stop offset="0" stop-color="#644ff7"/>
      <stop offset="1" stop-color="#9f6dff"/>
    </linearGradient>
    <linearGradient id="_Áåçûìÿííûé_ãðàäèåíò_69" data-name="Áåçûìÿííûé ãðàäèåíò 69" x1="65.09" y1="75.58" x2="85.94" y2="50.02" gradientUnits="userSpaceOnUse">
      <stop offset="0" stop-color="#935ce1"/>
      <stop offset=".22" stop-color="#8f5adf"/>
      <stop offset=".43" stop-color="#8353db"/>
      <stop offset=".63" stop-color="#7149d5"/>
      <stop offset=".82" stop-color="#563bcc"/>
      <stop offset=".99" stop-color="#392cc2"/>
    </linearGradient>
    <radialGradient id="_Áåçûìÿííûé_ãðàäèåíò_39" data-name="Áåçûìÿííûé ãðàäèåíò 39" cx="58.87" cy="-9.03" fx="58.87" fy="-9.03" r="17.77" gradientTransform="translate(69.58 65.03) rotate(-109.29)" gradientUnits="userSpaceOnUse">
      <stop offset="0" stop-color="#dea5ff"/>
      <stop offset="1" stop-color="#8931b3"/>
    </radialGradient>
    <linearGradient id="_Áåçûìÿííûé_ãðàäèåíò_182" data-name="Áåçûìÿííûé ãðàäèåíò 182" x1="60.45" y1="12" x2="60.45" y2="-8.85" gradientTransform="translate(69.58 65.03) rotate(-109.29)" gradientUnits="userSpaceOnUse">
      <stop offset="0" stop-color="#c287f8"/>
      <stop offset="1" stop-color="#ccb3ff"/>
    </linearGradient>
    <linearGradient id="_Áåçûìÿííûé_ãðàäèåíò_73" data-name="Áåçûìÿííûé ãðàäèåíò 73" x1="51.16" y1="13.54" x2="51.16" y2="1.52" gradientUnits="userSpaceOnUse">
      <stop offset="0" stop-color="#9f6dff"/>
      <stop offset=".27" stop-color="#9b69fe"/>
      <stop offset=".52" stop-color="#905efd"/>
      <stop offset=".76" stop-color="#7d4bfa"/>
      <stop offset="1" stop-color="#6431f7"/>
      <stop offset="1" stop-color="#6431f7"/>
    </linearGradient>
    <linearGradient id="_Áåçûìÿííûé_ãðàäèåíò_58" data-name="Áåçûìÿííûé ãðàäèåíò 58" x1="6.29" y1="32.19" x2="6.29" y2="13.45" gradientUnits="userSpaceOnUse">
      <stop offset="0" stop-color="#fc9ff7"/>
      <stop offset="1" stop-color="#f66dff"/>
    </linearGradient>
    <linearGradient id="_Áåçûìÿííûé_ãðàäèåíò_144" data-name="Áåçûìÿííûé ãðàäèåíò 144" x1="27.75" y1="103.8" x2="27.75" y2="88.13" gradientUnits="userSpaceOnUse">
      <stop offset="0" stop-color="#c282f7"/>
      <stop offset="1" stop-color="#dc6dff"/>
    </linearGradient>
    <linearGradient id="_Áåçûìÿííûé_ãðàäèåíò_200" data-name="Áåçûìÿííûé ãðàäèåíò 200" x1="27.26" y1="102.64" x2="27.26" y2="90.66" gradientUnits="userSpaceOnUse">
      <stop offset="0" stop-color="#4848f7"/>
      <stop offset="1" stop-color="#6d20ff"/>
    </linearGradient>
    <linearGradient id="_Áåçûìÿííûé_ãðàäèåíò_107-2" data-name="Áåçûìÿííûé ãðàäèåíò 107" x1="30.07" y1="98.73" x2="30.07" y2="91.36" gradientTransform="matrix(1,0,0,1,0,0)" xlink:href="#_Áåçûìÿííûé_ãðàäèåíò_107"/>
    <linearGradient id="_Áåçûìÿííûé_ãðàäèåíò_166" data-name="Áåçûìÿííûé ãðàäèåíò 166" x1="5.96" y1="28.67" x2="5.96" y2="15.25" gradientUnits="userSpaceOnUse">
      <stop offset="0" stop-color="#9f6dff"/>
      <stop offset="1" stop-color="#644ff7"/>
    </linearGradient>
    <linearGradient id="_Áåçûìÿííûé_ãðàäèåíò_188" data-name="Áåçûìÿííûé ãðàäèåíò 188" x1="6.33" y1="22.42" x2="7.65" y2="23.25" gradientUnits="userSpaceOnUse">
      <stop offset="0" stop-color="#9084ff"/>
      <stop offset="1" stop-color="#c287f8"/>
    </linearGradient>
    <linearGradient id="_Áåçûìÿííûé_ãðàäèåíò_212" data-name="Áåçûìÿííûé ãðàäèåíò 212" x1="11.53" y1="63.52" x2="19.7" y2="68.68" gradientUnits="userSpaceOnUse">
      <stop offset="0" stop-color="#9084ff"/>
      <stop offset=".49" stop-color="#d08bfc"/>
      <stop offset="1" stop-color="#ffc9f8"/>
    </linearGradient>
    <radialGradient id="_Áåçûìÿííûé_ãðàäèåíò_271" data-name="Áåçûìÿííûé ãðàäèåíò 271" cx="15.68" cy="65.32" fx="15.68" fy="65.32" r="3.93" gradientUnits="userSpaceOnUse">
      <stop offset="0" stop-color="#1372b3"/>
      <stop offset="1" stop-color="#fff"/>
    </radialGradient>
    <linearGradient id="_Áåçûìÿííûé_ãðàäèåíò_212-2" data-name="Áåçûìÿííûé ãðàäèåíò 212" x1="28.07" y1="21.65" x2="31.83" y2="24.03" gradientTransform="translate(1.98 -2.59) rotate(4.82)" xlink:href="#_Áåçûìÿííûé_ãðàäèåíò_212"/>
    <radialGradient id="_Áåçûìÿííûé_ãðàäèåíò_271-2" data-name="Áåçûìÿííûé ãðàäèåíò 271" cx="29.98" cy="22.48" fx="29.98" fy="22.48" r="1.81" gradientTransform="translate(1.98 -2.59) rotate(4.82)" xlink:href="#_Áåçûìÿííûé_ãðàäèåíò_271"/>
    <linearGradient id="_Áåçûìÿííûé_ãðàäèåíò_224" data-name="Áåçûìÿííûé ãðàäèåíò 224" x1="67.85" y1="88.35" x2="59.48" y2="88.17" gradientUnits="userSpaceOnUse">
      <stop offset="0" stop-color="#9566fc"/>
      <stop offset="1" stop-color="#5445b1"/>
    </linearGradient>
    <radialGradient id="_Áåçûìÿííûé_ãðàäèåíò_234" data-name="Áåçûìÿííûé ãðàäèåíò 234" cx="39" cy="67.4" fx="39" fy="67.4" r="8.85" gradientUnits="userSpaceOnUse">
      <stop offset="0" stop-color="#ffffe8"/>
      <stop offset=".2" stop-color="#bba"/>
      <stop offset=".42" stop-color="#79796e"/>
      <stop offset=".61" stop-color="#45453e"/>
      <stop offset=".78" stop-color="#1f1f1c"/>
      <stop offset=".91" stop-color="#080807"/>
      <stop offset="1" stop-color="#000"/>
    </radialGradient>
    <radialGradient id="_Áåçûìÿííûé_ãðàäèåíò_271-3" data-name="Áåçûìÿííûé ãðàäèåíò 271" cx="63.65" cy="87.66" fx="63.65" fy="87.66" r="3.49" xlink:href="#_Áåçûìÿííûé_ãðàäèåíò_271"/>
    <linearGradient id="_Áåçûìÿííûé_ãðàäèåíò_253" data-name="Áåçûìÿííûé ãðàäèåíò 253" x1="22.86" y1="48.14" x2="45.58" y2="62.51" gradientUnits="userSpaceOnUse">
      <stop offset="0" stop-color="#9084ff"/>
      <stop offset=".12" stop-color="#9684fe"/>
      <stop offset=".29" stop-color="#aa86fd"/>
      <stop offset=".49" stop-color="#c98afc"/>
      <stop offset=".53" stop-color="#d08bfc"/>
      <stop offset="1" stop-color="#ffc9f8"/>
    </linearGradient>
    <linearGradient id="_Áåçûìÿííûé_ãðàäèåíò_226" data-name="Áåçûìÿííûé ãðàäèåíò 226" x1="23.15" y1="51.17" x2="45.85" y2="51.17" gradientUnits="userSpaceOnUse">
      <stop offset="0" stop-color="#1372b3"/>
      <stop offset="1" stop-color="#fff"/>
    </linearGradient>
    <linearGradient id="_Áåçûìÿííûé_ãðàäèåíò_250" data-name="Áåçûìÿííûé ãðàäèåíò 250" x1="69.98" y1="12.38" x2="81.14" y2="19.44" gradientUnits="userSpaceOnUse">
      <stop offset="0" stop-color="#845fff"/>
      <stop offset=".49" stop-color="#a972fc"/>
      <stop offset="1" stop-color="#d4b0f8"/>
    </linearGradient>
    <linearGradient id="_Áåçûìÿííûé_ãðàäèåíò_226-2" data-name="Áåçûìÿííûé ãðàäèåíò 226" x1="69.76" y1="15.21" x2="80.39" y2="15.21" xlink:href="#_Áåçûìÿííûé_ãðàäèåíò_226"/>
    <linearGradient id="_Áåçûìÿííûé_ãðàäèåíò_16" data-name="Áåçûìÿííûé ãðàäèåíò 16" x1="62.75" y1="56.54" x2="90.43" y2="56.54" gradientUnits="userSpaceOnUse">
      <stop offset="0" stop-color="#7c52b3"/>
      <stop offset="1" stop-color="#fff"/>
    </linearGradient>
    <radialGradient id="_Áåçûìÿííûé_ãðàäèåíò_50-2" data-name="Áåçûìÿííûé ãðàäèåíò 50" cx="88.62" cy="99.69" fx="88.62" fy="99.69" r="17.03" gradientTransform="translate(19.06 -14.99) rotate(10.24)" xlink:href="#_Áåçûìÿííûé_ãðàäèåíò_50"/>
    <linearGradient id="_Áåçûìÿííûé_ãðàäèåíò_35-2" data-name="Áåçûìÿííûé ãðàäèåíò 35" x1="108.6" y1="79.04" x2="97.24" y2="72.48" gradientTransform="translate(-17.04 158.78) rotate(-64.06)" xlink:href="#_Áåçûìÿííûé_ãðàäèåíò_35"/>
    <linearGradient id="_Áåçûìÿííûé_ãðàäèåíò_107-3" data-name="Áåçûìÿííûé ãðàäèåíò 107" x1="104" y1="83.4" x2="104" y2="68.58" gradientTransform="translate(-17.04 158.78) rotate(-64.06)" xlink:href="#_Áåçûìÿííûé_ãðàäèåíò_107"/>
    <linearGradient id="_Áåçûìÿííûé_ãðàäèåíò_159" data-name="Áåçûìÿííûé ãðàäèåíò 159" x1="101.53" y1="85.52" x2="101.53" y2="73.25" gradientTransform="translate(-10.66 169.6) rotate(-71.46)" gradientUnits="userSpaceOnUse">
      <stop offset="0" stop-color="#392cc2"/>
      <stop offset="1" stop-color="#5f33c5"/>
    </linearGradient>
    <linearGradient id="_Áåçûìÿííûé_ãðàäèåíò_165" data-name="Áåçûìÿííûé ãðàäèåíò 165" x1="100.8" y1="85.46" x2="100.8" y2="73.32" gradientTransform="translate(-10.66 169.6) rotate(-71.46)" gradientUnits="userSpaceOnUse">
      <stop offset="0" stop-color="#5e48f7"/>
      <stop offset="1" stop-color="#8c50ff"/>
    </linearGradient>
    <linearGradient id="_Áåçûìÿííûé_ãðàäèåíò_16-2" data-name="Áåçûìÿííûé ãðàäèåíò 16" x1="95.6" y1="77.53" x2="107.44" y2="77.53" gradientTransform="translate(-10.66 169.6) rotate(-71.46)" xlink:href="#_Áåçûìÿííûé_ãðàäèåíò_16"/>
    <linearGradient id="_Áåçûìÿííûé_ãðàäèåíò_16-3" data-name="Áåçûìÿííûé ãðàäèåíò 16" x1="42.99" y1="5.57" x2="59.33" y2="5.57" xlink:href="#_Áåçûìÿííûé_ãðàäèåíò_16"/>
  </defs>
  <g class="cls-43">
    <g id="Layer_2" data-name="Layer 2">
      <g id="planets">
        <g>
          <path class="cls-20" d="m78.8,11.6s6.24,1.73,10.39,1.48c0,0,7.44,5.05,11.59,18.44,0,0-3.57,4.23-2.81,9.15,0,0-6.36-17.28-19.17-29.07Z"/>
          <path class="cls-30" d="m85.64,111.52s-2.54-.77-4.43-.54c0,0-2.54-1.9-2.58-5.2,0,0,1.95-2.4,2.65-4.26,0,0,.78,5.33,4.36,10Z"/>
          <path class="cls-2" d="m98.97,50.39c0,4.55-.64,8.96-1.85,13.12-2.4,8.37-7.05,15.78-13.26,21.56-4.44,4.14-9.68,7.43-15.45,9.62-5.23,1.99-10.89,3.07-16.82,3.07-.84,0-1.69-.02-2.52-.07h0c-1.24-.06-2.47-.18-3.68-.33-9.15-1.2-17.46-5-24.2-10.66-2.53-2.11-4.83-4.49-6.86-7.09-1.54-1.95-2.93-4.02-4.15-6.21-.29-.52-.57-1.05-.85-1.58,0-.02,0-.03-.02-.05-.29-.57-.56-1.14-.82-1.72h0c-.82-1.81-1.54-3.68-2.12-5.6-.44-1.38-.81-2.8-1.11-4.24,0-.01,0-.03,0-.04-.21-1.01-.39-2.03-.53-3.06-.32-2.2-.48-4.44-.48-6.72,0-1.31.05-2.62.17-3.9.06-.82.15-1.63.26-2.44.61-4.66,1.91-9.1,3.79-13.23.92-2.03,1.98-3.98,3.17-5.85,1.98-3.12,4.32-5.98,6.96-8.55C27.1,8.12,38.75,3.01,51.59,3.01c.5,0,1,.01,1.49.02.53.02,1.06.04,1.59.08,2.72.18,5.38.58,7.95,1.2,1.5.36,2.97.78,4.41,1.28.98.33,1.94.7,2.89,1.1.71.3,1.4.61,2.09.94.12.06.24.11.36.17,4.6,2.25,8.77,5.21,12.39,8.76.52.5,1.02,1.02,1.52,1.55.33.36.66.73.98,1.1.55.62,1.08,1.27,1.6,1.92,1.89,2.4,3.55,4.98,4.94,7.72,1.63,3.18,2.91,6.57,3.78,10.12.91,3.66,1.39,7.48,1.39,11.42Z"/>
          <path class="cls-15" d="m6.03,43.39s8.45,4.41,16.02-1.59c7.57-5.99,1.51-28.35,1.51-28.35L6.03,43.39Z"/>
          <path class="cls-37" d="m60.95,77.45s3.82,4.6,13.18,5.1c9.36.51,18.7-10.23,20.85-19.96,2.15-9.73-4.8-19.56-11.62-21.08-6.82-1.53-22.41,35.94-22.41,35.94Z"/>
          <path class="cls-24" d="m23.5,87.38c-4.9-4.1-8.96-9.18-11.87-14.93-1.83-3.62-3.21-7.49-4.07-11.56,0,0,0-.02,0-.04-.66-3.16-1.01-6.43-1.01-9.78,0-9.35,2.71-18.07,7.39-25.42,1.99-3.12,4.32-5.98,6.96-8.55C29.42,8.81,41.07,3.7,53.91,3.7c1.04,0,2.05.03,3.07.1,3.21.21,6.33.74,9.34,1.55-3.7-1.21-7.61-1.98-11.66-2.24-1.02-.07-2.04-.1-3.07-.1-12.84,0-24.49,5.11-33.03,13.41-2.64,2.56-4.97,5.42-6.96,8.55-4.68,7.35-7.39,16.07-7.39,25.42,0,3.35.35,6.62,1.01,9.78,0,.02,0,.03,0,.04.85,4.07,2.24,7.95,4.07,11.56,2.92,5.75,6.98,10.83,11.87,14.93,5.19,4.35,11.32,7.61,18.04,9.42-5.81-1.9-11.13-4.89-15.72-8.73Z"/>
          <path class="cls-35" d="m12.9,77.71s3,4.89,2.24,12.85c0,0,6.58,11.5,25.15,12.45,0,0,9.35-6.89,18.29-5.77,0,0-15.45-22.02-45.68-19.53Z"/>
          <path class="cls-34" d="m6.03,43.39S2.91,34.8.12,31.77c0,0-2.15-13.64,11.75-18.32,0,0,7.48,1.43,11.69,0,0,0,1.6,9.22-4.75,19.07-5.41,8.4-12.79,10.86-12.79,10.86Z"/>
          <path class="cls-32" d="m91.15,50.08s-3.31-11.65-14.56-12.34c-11.93-.74-22.49,23.06-18.81,34.43,3.68,11.37,16.95,9.73,23.03,5.6,7.38-5.02,11.01-16.11,10.33-27.69Z"/>
          <path class="cls-28" d="m40.56,15.88s4.04,6.83,11.86,6.08c8.54-.82,10.82-8.05,10.5-10.91-.32-2.86-22.36,4.83-22.36,4.83Z"/>
          <path class="cls-27" d="m78.43,41.8c-10.31-.06-25.59,27.38-12.29,36.61,12.63,8.76,24.31-10.26,25.68-16.76,1.37-6.5.49-19.77-13.39-19.85Z"/>
          <path class="cls-18" d="m73.63,78.13c-.49-.04-.97-.11-1.42-.18-6.4-1.1-8.8-5.55-9.34-10.04-.34-2.85.07-5.71.68-7.75,1.21-4.04,7.7-13.51,15.13-14.84,2.64-.48,5.4.08,8.09,2.29,2.27,1.88,3.4,4.35,3.66,7.09,1,10.22-9.83,24.05-16.8,23.43Z"/>
          <path class="cls-14" d="m42.38,3.33s-4.74,6.08-2.4,11.55c2.48,5.8,16.37,5.55,20.86,1.12,4.49-4.43.91-12.88-2.95-14.36-4.4-1.69-10.2-1.37-15.5,1.69Z"/>
          <path class="cls-42" d="m41.49,11.29c2.42,4.87,18.97,5.57,20.17-2.89C62.8.37,51.06-.62,47.67.27c-3.39.89-9.44,4.46-6.18,11.02Z"/>
          <path class="cls-36" d="m59.31,6.32c.03.27.03.53,0,.78,0,.27-.05.54-.11.79-1.35,5.43-12.26,7.2-14.75,4.18-.69-.84-1.11-1.67-1.31-2.46-.85-3.33,2.12-6,4.09-7.03,2.43-1.28,11.54-2.59,12.08,3.74Z"/>
          <path class="cls-10" d="m.12,31.77c.23,3.1,15.81-11.59,11.75-18.32,0,0-13.01,1.2-11.75,18.32Z"/>
          <path class="cls-16" d="m15.14,90.56c-.97-5.54,27.17-1.71,25.15,12.45-.44,3.09-23.54-3.25-25.15-12.45Z"/>
          <path class="cls-40" d="m37.76,102.6c-.47.38-15.91-1.9-21.22-11.28-.35-.63,1.3-.83,3.83-.53.96.11,2.04.3,3.19.57,3.66.85,7.97,2.51,10.89,5.15.91.82,1.61,1.56,2.13,2.22.75.96,1.15,1.74,1.33,2.34.25.85.07,1.36-.15,1.53Z"/>
          <path class="cls-12" d="m36.58,98.73c-6.12-1.08-10.52-4.7-13.02-7.37,3.66.85,7.97,2.51,10.89,5.15.91.82,1.61,1.56,2.13,2.22Z"/>
          <path class="cls-9" d="m10.18,17.71c-.26.83-.7,1.94-1.36,3.42-1.18,2.63-3.52,5.37-5.22,6.7-.87.69-1.57,1.01-1.86.76-.59-.51-.49-4.29,1.32-7.79,1.81-3.52,6.7-6.01,7.2-5.47.31.34.37.97-.08,2.38Z"/>
          <path class="cls-11" d="m10.18,17.71c-.26.83-.7,1.94-1.36,3.42-1.18,2.63-3.52,5.37-5.22,6.7,1.99-5.4,5.5-9.08,6.58-10.12Z"/>
          <path class="cls-23" d="m15.14,71.05c-.49-.3-.97-.84-1.4-1.53,0,0,0-.01-.02-.03-1.57-2.53-2.48-6.93-.82-7.83,2.05-1.12,5.08-.54,6.45,3.1,0,0,0,.01,0,.02.05.12.1.25.13.38,0,.02.02.04.02.06.02.1.05.19.08.25.04.13.08.26.11.4.85,3.47-2.27,6.57-4.56,5.18Z"/>
          <path class="cls-7" d="m19.35,64.76c-.77-1.55-3.77-3.35-5.61-1.67-1.93,1.76-.18,6-.02,6.4-1.57-2.53-2.48-6.93-.82-7.83,2.05-1.12,5.08-.54,6.45,3.1Z"/>
          <path class="cls-29" d="m29.49,24.95c-.21-.16-.41-.42-.58-.76,0,0,0,0,0-.01-.62-1.22-.87-3.28-.07-3.63.99-.44,2.35-.05,2.84,1.67,0,0,0,0,0,0,.02.06.04.12.04.18,0,0,0,.02,0,.03,0,.05.02.09.03.12.01.06.03.12.04.19.26,1.63-1.3,2.93-2.3,2.2Z"/>
          <path class="cls-8" d="m31.67,22.22c-.29-.74-1.6-1.69-2.51-.98-.95.73-.32,2.75-.26,2.94-.62-1.22-.87-3.28-.07-3.63.99-.44,2.35-.05,2.84,1.67Z"/>
          <path class="cls-25" d="m64.97,91.08h-.02c-.09.05-.2.09-.31.11-.02.02-.03.03-.05.03-.08.02-.16.03-.2.06-.09.03-.2.06-.33.09-1.58.42-3.08-.16-3.91-1.1-.67-.75-.91-1.71-.42-2.56.24-.41.67-.82,1.24-1.18l.02-.02c2.06-1.33,5.66-2.17,6.43-.82.22.36.36.77.41,1.19.24,1.51-.53,3.25-2.86,4.17Z"/>
          <path class="cls-26" d="m25.92,64.99s2.85,4.54,10.66,4.07c7.81-.47,9.23-4.3,9.71-7.41s-.83-6.94-.83-6.94c0,0-17.27,3.26-19.54,10.27Z"/>
          <path class="cls-33" d="m67.83,86.91c-.64-.55-1.98-1.22-4.16-.53-3.34,1.05-3.51,3.91-3.51,3.91-.67-.75-.91-1.71-.42-2.56.24-.41.67-.82,1.24-1.18l.02-.02c2.06-1.33,5.66-2.17,6.43-.82.22.36.36.77.41,1.19Z"/>
          <path class="cls-5" d="m45.84,59.12v.17c.01,12.1-18.12,10.62-20.96,4.18-.39-.89-.72-1.88-.97-2.92h0c-1.6-6.49-.6-15.17,2.29-17.16,3.04-2.09,8.88-2.14,13.13,0,4.79,2.41,6.68,9.62,6.51,15.73Z"/>
          <path class="cls-6" d="m45.84,59.12v.17s.26-7.57-3.4-11.61c-3.67-4.04-10.99-5.18-15.18-.63-4.08,4.44-3.39,13.08-3.35,13.49-1.6-6.48-.6-15.16,2.29-17.15,3.04-2.09,8.88-2.14,13.13,0,4.79,2.41,6.68,9.62,6.51,15.73Z"/>
          <g>
            <path class="cls-19" d="m79.83,21.03c-1.03.55-3.47-.97-5.7-2.87-2.71-2.33-5.09-5.24-4.16-5.66,1.27-.57,5.94-.19,8.09,1.58.92.76,1.8,1.93,2.33,3.12.67,1.55.73,3.13-.56,3.83Z"/>
            <path class="cls-1" d="m80.39,17.2s-.02-.03-.03-.04c-3.38-5.1-8.59-4.88-8.97-3.49-.38,1.39,2.74,4.49,2.74,4.49-2.71-2.33-5.09-5.24-4.16-5.66,1.27-.57,5.94-.19,8.09,1.58.92.76,1.8,1.93,2.33,3.12Z"/>
          </g>
          <path class="cls-39" d="m3.48,30.49s7.71-3.87,8.52-11.51c0,0-3.89,7.86-8.52,11.51Z"/>
          <path class="cls-39" d="m60.95,68.37s.76-15.32,11.84-24.35c0,0-13.29,6.36-11.84,24.35Z"/>
          <path class="cls-22" d="m41.94,11.96s2.08,3.15,9.18,2.91c7.1-.24,9.43-3.48,9.83-4.35,0,0-1.76,5.44-9.79,5.25-8.47-.2-9.22-3.81-9.22-3.81Z"/>
          <path class="cls-22" d="m27.26,89.16s10.77,4.35,12.95,10.6c0,0-.24-7.18-12.95-10.6Z"/>
          <path class="cls-17" d="m90.43,54.7v.02s-3.66-6.32-13.81-3.55c-9.1,2.48-13.03,14.19-13.75,16.74-.34-2.85.07-5.71.68-7.75,1.21-4.04,7.7-13.51,15.13-14.84,2.64-.48,5.4.08,8.09,2.29,2.27,1.88,3.4,4.35,3.66,7.09Z"/>
          <path class="cls-38" d="m102.76,105.43c-.19,1.07-.53,2.08-.99,3-.92,1.86-2.32,3.4-4.02,4.5-1.22.78-2.59,1.33-4.03,1.6-1.31.25-2.69.26-4.08,0-.2-.04-.4-.08-.59-.12h0c-.29-.07-.57-.15-.85-.23-2.1-.67-3.88-1.91-5.23-3.53-.5-.6-.94-1.26-1.31-1.95-.28-.52-.52-1.07-.71-1.63-.05-.13-.09-.27-.13-.41,0,0,0,0,0-.01-.04-.15-.08-.29-.12-.44h0c-.12-.46-.21-.93-.26-1.4-.04-.34-.07-.69-.08-1.04,0,0,0,0,0,0,0-.25,0-.49,0-.74.02-.53.08-1.06.17-1.6.06-.31.12-.61.21-.91.05-.19.1-.38.16-.56.34-1.07.83-2.05,1.45-2.94.3-.44.63-.85.99-1.24.6-.65,1.27-1.22,2-1.71,2.35-1.59,5.3-2.29,8.32-1.75.12.02.23.04.35.07.12.03.25.05.37.09.63.16,1.24.36,1.81.62.34.15.66.31.98.49.22.12.43.25.63.38.15.1.3.2.45.31.03.02.05.04.08.06.98.72,1.84,1.59,2.54,2.58.1.14.2.28.29.43.06.1.12.2.18.3.1.17.2.34.29.52.34.64.62,1.32.83,2.02.25.82.4,1.66.46,2.53.06.9,0,1.81-.16,2.74Z"/>
          <path class="cls-41" d="m94.69,91.25s-4.48-.12-6.16,4.34c-1.78,4.74,5.18,11.99,9.61,11.93s5.55-5.64,4.88-8.62c-.81-3.62-4.22-6.48-8.34-7.65Z"/>
          <path class="cls-3" d="m90.19,95.36c-1.33,4.17,6.29,13.79,11.2,9.56,4.66-4.02-.48-11.13-2.58-12.5s-6.83-2.68-8.63,2.93Z"/>
          <path class="cls-21" d="m102.25,101.86c-.08.19-.16.38-.24.55-1.2,2.45-3.06,2.87-4.69,2.52-1.04-.22-1.98-.74-2.62-1.25-1.25-1-3.73-4.81-3.25-7.99.17-1.13.72-2.18,1.83-2.99.94-.68,1.95-.83,2.94-.59,3.69.88,7.14,6.99,6.03,9.74Z"/>
          <path class="cls-31" d="m102,102.41c-1.96,4.01-5.68,2.57-7.31,1.27-1.25-1-3.73-4.81-3.25-7.99.3-.59.75-1.14,1.39-1.6,4.13-3.01,9.53,4.44,9.16,8.31Z"/>
          <path class="cls-13" d="m96.21,92.12h0s-2.67.69-2.99,5.15c-.29,3.99,3.29,7.05,4.09,7.67-1.04-.22-1.98-.74-2.62-1.25-1.25-1-3.73-4.81-3.25-7.99.17-1.13.72-2.18,1.83-2.99.94-.68,1.95-.83,2.94-.59Z"/>
          <path class="cls-4" d="m59.31,6.32c.03.27.03.53,0,.78-1.9-2.79-5.4-3.41-9.81-2.46-4.42.95-6.36,4.97-6.36,4.97-.85-3.33,2.12-6,4.09-7.03,2.43-1.28,11.54-2.59,12.08,3.74Z"/>
        </g>
      </g>
    </g>
  </g>
</svg>