<?xml version="1.0" encoding="UTF-8"?>
<svg xmlns="http://www.w3.org/2000/svg" xmlns:xlink="http://www.w3.org/1999/xlink" viewBox="0 0 101.12 115.51">
  <defs>
    <style>
      .cls-1 {
        fill: url(#_Áåçûìÿííûé_ãðàäèåíò_9-4);
      }

      .cls-1, .cls-2, .cls-3, .cls-4, .cls-5, .cls-6, .cls-7, .cls-8, .cls-9, .cls-10, .cls-11, .cls-12, .cls-13, .cls-14, .cls-15, .cls-16, .cls-17, .cls-18, .cls-19, .cls-20, .cls-21, .cls-22, .cls-23, .cls-24, .cls-25, .cls-26, .cls-27, .cls-28, .cls-29 {
        fill-rule: evenodd;
      }

      .cls-1, .cls-6, .cls-8, .cls-12, .cls-14, .cls-19, .cls-20, .cls-22, .cls-23, .cls-25 {
        mix-blend-mode: multiply;
      }

      .cls-1, .cls-6, .cls-8, .cls-14, .cls-20, .cls-22, .cls-23 {
        opacity: .4;
      }

      .cls-2 {
        fill: url(#_Áåçûìÿííûé_ãðàäèåíò_37);
      }

      .cls-30 {
        fill: url(#_Áåçûìÿííûé_ãðàäèåíò_136);
      }

      .cls-30, .cls-31, .cls-32, .cls-10, .cls-15, .cls-33 {
        mix-blend-mode: screen;
      }

      .cls-31 {
        fill: url(#_Áåçûìÿííûé_ãðàäèåíò_75-2);
      }

      .cls-3 {
        fill: url(#_Áåçûìÿííûé_ãðàäèåíò_18);
      }

      .cls-32 {
        fill: url(#_Áåçûìÿííûé_ãðàäèåíò_75);
      }

      .cls-4 {
        fill: url(#_Áåçûìÿííûé_ãðàäèåíò_67-3);
      }

      .cls-34 {
        isolation: isolate;
      }

      .cls-5 {
        fill: url(#_Áåçûìÿííûé_ãðàäèåíò_41);
      }

      .cls-6 {
        fill: url(#_Áåçûìÿííûé_ãðàäèåíò_9-5);
      }

      .cls-7 {
        fill: url(#_Áåçûìÿííûé_ãðàäèåíò_858);
      }

      .cls-8 {
        fill: url(#_Áåçûìÿííûé_ãðàäèåíò_9-3);
      }

      .cls-9 {
        fill: url(#_Áåçûìÿííûé_ãðàäèåíò_833);
      }

      .cls-10 {
        fill: url(#_Áåçûìÿííûé_ãðàäèåíò_75-3);
      }

      .cls-11 {
        fill: url(#_Áåçûìÿííûé_ãðàäèåíò_67);
      }

      .cls-12 {
        fill: url(#_Áåçûìÿííûé_ãðàäèåíò_99);
      }

      .cls-13 {
        fill: url(#_Áåçûìÿííûé_ãðàäèåíò_67-2);
      }

      .cls-14 {
        fill: url(#_Áåçûìÿííûé_ãðàäèåíò_9-2);
      }

      .cls-15 {
        fill: url(#_Áåçûìÿííûé_ãðàäèåíò_600);
      }

      .cls-16 {
        fill: url(#_Áåçûìÿííûé_ãðàäèåíò_57);
      }

      .cls-17 {
        fill: url(#_Áåçûìÿííûé_ãðàäèåíò_93);
      }

      .cls-18 {
        fill: url(#_Áåçûìÿííûé_ãðàäèåíò_87-2);
      }

      .cls-19 {
        fill: url(#_Áåçûìÿííûé_ãðàäèåíò_111-2);
      }

      .cls-20 {
        fill: url(#_Áåçûìÿííûé_ãðàäèåíò_559);
      }

      .cls-21 {
        fill: url(#_Áåçûìÿííûé_ãðàäèåíò_27);
      }

      .cls-22 {
        fill: url(#_Áåçûìÿííûé_ãðàäèåíò_559-2);
      }

      .cls-23 {
        fill: url(#_Áåçûìÿííûé_ãðàäèåíò_9);
      }

      .cls-24 {
        fill: url(#_Áåçûìÿííûé_ãðàäèåíò_87);
      }

      .cls-25 {
        fill: url(#_Áåçûìÿííûé_ãðàäèåíò_111);
      }

      .cls-26 {
        fill: url(#_Áåçûìÿííûé_ãðàäèåíò_57-2);
      }

      .cls-27 {
        fill: url(#_Áåçûìÿííûé_ãðàäèåíò_27-2);
      }

      .cls-28 {
        fill: #0edbff;
      }

      .cls-33 {
        fill: url(#_Áåçûìÿííûé_ãðàäèåíò_75-4);
      }

      .cls-29 {
        fill: url(#_Áåçûìÿííûé_ãðàäèåíò_36);
      }
    </style>
    <linearGradient id="_Áåçûìÿííûé_ãðàäèåíò_37" data-name="Áåçûìÿííûé ãðàäèåíò 37" x1="15.9" y1="38.72" x2="15.9" y2="22.31" gradientUnits="userSpaceOnUse">
      <stop offset="0" stop-color="#9a00b3"/>
      <stop offset="1" stop-color="#7f72ff"/>
    </linearGradient>
    <linearGradient id="_Áåçûìÿííûé_ãðàäèåíò_67" data-name="Áåçûìÿííûé ãðàäèåíò 67" x1="12.27" y1="39.55" x2="18.44" y2="20.73" gradientUnits="userSpaceOnUse">
      <stop offset="0" stop-color="#5b008b"/>
      <stop offset="1" stop-color="#8e00ff"/>
    </linearGradient>
    <radialGradient id="_Áåçûìÿííûé_ãðàäèåíò_858" data-name="Áåçûìÿííûé ãðàäèåíò 858" cx="18.04" cy="41.98" fx="18.04" fy="41.98" r="76.1" gradientUnits="userSpaceOnUse">
      <stop offset="0" stop-color="#60dbff"/>
      <stop offset=".09" stop-color="#5fd5ff"/>
      <stop offset=".21" stop-color="#5ec4ff"/>
      <stop offset=".34" stop-color="#5ca8ff"/>
      <stop offset=".49" stop-color="#5a81ff"/>
      <stop offset=".64" stop-color="#5651ff"/>
      <stop offset=".68" stop-color="#5643ff"/>
      <stop offset=".74" stop-color="#553df8"/>
      <stop offset=".83" stop-color="#542ee4"/>
      <stop offset=".93" stop-color="#5315c5"/>
      <stop offset="1" stop-color="#5200ab"/>
    </radialGradient>
    <linearGradient id="_Áåçûìÿííûé_ãðàäèåíò_833" data-name="Áåçûìÿííûé ãðàäèåíò 833" x1="0" y1="51.14" x2="68.15" y2="51.14" gradientUnits="userSpaceOnUse">
      <stop offset=".01" stop-color="#81e0ff"/>
      <stop offset=".32" stop-color="#82ddff"/>
      <stop offset=".55" stop-color="#85d3ff"/>
      <stop offset=".75" stop-color="#8bc3ff"/>
      <stop offset=".94" stop-color="#93adff"/>
      <stop offset="1" stop-color="#97a4ff"/>
    </linearGradient>
    <linearGradient id="_Áåçûìÿííûé_ãðàäèåíò_99" data-name="Áåçûìÿííûé ãðàäèåíò 99" x1="68.85" y1="107.08" x2="68.85" y2="84.84" gradientUnits="userSpaceOnUse">
      <stop offset="0" stop-color="#b8c2ff"/>
      <stop offset="1" stop-color="#5b729c"/>
    </linearGradient>
    <radialGradient id="_Áåçûìÿííûé_ãðàäèåíò_600" data-name="Áåçûìÿííûé ãðàäèåíò 600" cx="12.75" cy="31.89" fx="12.75" fy="31.89" r="62.36" gradientUnits="userSpaceOnUse">
      <stop offset="0" stop-color="#ffffd9"/>
      <stop offset="1" stop-color="#000"/>
    </radialGradient>
    <linearGradient id="_Áåçûìÿííûé_ãðàäèåíò_9" data-name="Áåçûìÿííûé ãðàäèåíò 9" x1=".43" y1="37.73" x2="60.01" y2="37.73" gradientUnits="userSpaceOnUse">
      <stop offset="0" stop-color="#b8c2ff"/>
      <stop offset="1" stop-color="#7d72b3"/>
    </linearGradient>
    <linearGradient id="_Áåçûìÿííûé_ãðàäèåíò_9-2" data-name="Áåçûìÿííûé ãðàäèåíò 9" x1="10.1" y1="82.08" x2="94.75" y2="82.08" xlink:href="#_Áåçûìÿííûé_ãðàäèåíò_9"/>
    <linearGradient id="_Áåçûìÿííûé_ãðàäèåíò_9-3" data-name="Áåçûìÿííûé ãðàäèåíò 9" x1="5.1" y1="64.57" x2="89.58" y2="64.57" xlink:href="#_Áåçûìÿííûé_ãðàäèåíò_9"/>
    <linearGradient id="_Áåçûìÿííûé_ãðàäèåíò_9-4" data-name="Áåçûìÿííûé ãðàäèåíò 9" x1="0" y1="52.76" x2="83.04" y2="52.76" xlink:href="#_Áåçûìÿííûé_ãðàäèåíò_9"/>
    <linearGradient id="_Áåçûìÿííûé_ãðàäèåíò_559" data-name="Áåçûìÿííûé ãðàäèåíò 559" x1="61.52" y1="45.92" x2="62.66" y2="45.92" gradientUnits="userSpaceOnUse">
      <stop offset="0" stop-color="#e8ddff"/>
      <stop offset="1" stop-color="#aa8ad8"/>
    </linearGradient>
    <linearGradient id="_Áåçûìÿííûé_ãðàäèåíò_559-2" data-name="Áåçûìÿííûé ãðàäèåíò 559" x1="2.97" y1="66.98" x2="3.21" y2="66.98" xlink:href="#_Áåçûìÿííûé_ãðàäèåíò_559"/>
    <linearGradient id="_Áåçûìÿííûé_ãðàäèåíò_18" data-name="Áåçûìÿííûé ãðàäèåíò 18" x1="56.46" y1="26.15" x2="86.86" y2="26.15" gradientUnits="userSpaceOnUse">
      <stop offset="0" stop-color="#7f72ff"/>
      <stop offset="1" stop-color="#9a00b3"/>
    </linearGradient>
    <linearGradient id="_Áåçûìÿííûé_ãðàäèåíò_57" data-name="Áåçûìÿííûé ãðàäèåíò 57" x1="63.36" y1="99.14" x2="78.79" y2="52.06" gradientUnits="userSpaceOnUse">
      <stop offset="0" stop-color="#280077"/>
      <stop offset="1" stop-color="#812cff"/>
    </linearGradient>
    <linearGradient id="_Áåçûìÿííûé_ãðàäèåíò_27" data-name="Áåçûìÿííûé ãðàäèåíò 27" x1="71" y1="99.6" x2="71" y2="52.34" gradientTransform="translate(31.31 -18.57) rotate(18.14)" gradientUnits="userSpaceOnUse">
      <stop offset="0" stop-color="#7a00b3"/>
      <stop offset="1" stop-color="#b136ff"/>
    </linearGradient>
    <linearGradient id="_Áåçûìÿííûé_ãðàäèåíò_87" data-name="Áåçûìÿííûé ãðàäèåíò 87" x1="72.85" y1="85.3" x2="72.85" y2="52.77" gradientUnits="userSpaceOnUse">
      <stop offset="0" stop-color="#8e00b3"/>
      <stop offset="1" stop-color="#e05cff"/>
    </linearGradient>
    <linearGradient id="_Áåçûìÿííûé_ãðàäèåíò_111" data-name="Áåçûìÿííûé ãðàäèåíò 111" x1="20.69" y1="104.13" x2="20.69" y2="85.03" gradientUnits="userSpaceOnUse">
      <stop offset="0" stop-color="#81a9ce"/>
      <stop offset="1" stop-color="#5b729c"/>
    </linearGradient>
    <linearGradient id="_Áåçûìÿííûé_ãðàäèåíò_57-2" data-name="Áåçûìÿííûé ãðàäèåíò 57" x1="15.32" y1="98.65" x2="21.69" y2="79.2" xlink:href="#_Áåçûìÿííûé_ãðàäèåíò_57"/>
    <linearGradient id="_Áåçûìÿííûé_ãðàäèåíò_36" data-name="Áåçûìÿííûé ãðàäèåíò 36" x1="54.27" y1="115.51" x2="54.27" y2="107.08" gradientUnits="userSpaceOnUse">
      <stop offset="0" stop-color="#7a00b3"/>
      <stop offset=".92" stop-color="#7006fc"/>
      <stop offset="1" stop-color="#7006f9"/>
    </linearGradient>
    <linearGradient id="_Áåçûìÿííûé_ãðàäèåíò_27-2" data-name="Áåçûìÿííûé ãðàäèåíò 27" x1="15.7" y1="101.75" x2="15.7" y2="77.54" gradientTransform="matrix(1,0,0,1,0,0)" xlink:href="#_Áåçûìÿííûé_ãðàäèåíò_27"/>
    <linearGradient id="_Áåçûìÿííûé_ãðàäèåíò_87-2" data-name="Áåçûìÿííûé ãðàäèåíò 87" x1="16.97" y1="101.75" x2="16.97" y2="77.54" xlink:href="#_Áåçûìÿííûé_ãðàäèåíò_87"/>
    <linearGradient id="_Áåçûìÿííûé_ãðàäèåíò_67-2" data-name="Áåçûìÿííûé ãðàäèåíò 67" x1="51.91" y1="69.78" x2="55.96" y2="57.41" xlink:href="#_Áåçûìÿííûé_ãðàäèåíò_67"/>
    <linearGradient id="_Áåçûìÿííûé_ãðàäèåíò_41" data-name="Áåçûìÿííûé ãðàäèåíò 41" x1="53.32" y1="68.89" x2="56.68" y2="58.65" gradientUnits="userSpaceOnUse">
      <stop offset="0" stop-color="#a400ca"/>
      <stop offset="1" stop-color="#b136ff"/>
    </linearGradient>
    <linearGradient id="_Áåçûìÿííûé_ãðàäèåíò_67-3" data-name="Áåçûìÿííûé ãðàäèåíò 67" x1="70.13" y1="32.47" x2="74.97" y2="17.7" xlink:href="#_Áåçûìÿííûé_ãðàäèåíò_67"/>
    <radialGradient id="_Áåçûìÿííûé_ãðàäèåíò_75" data-name="Áåçûìÿííûé ãðàäèåíò 75" cx="82.11" cy="86.01" fx="82.11" fy="86.01" r="8.97" gradientTransform="translate(39.42 -24.97) rotate(22.63)" gradientUnits="userSpaceOnUse">
      <stop offset="0" stop-color="#317aff"/>
      <stop offset=".1" stop-color="#2967d7"/>
      <stop offset=".29" stop-color="#1c4896"/>
      <stop offset=".47" stop-color="#122e60"/>
      <stop offset=".64" stop-color="#0a1a37"/>
      <stop offset=".78" stop-color="#040b18"/>
      <stop offset=".91" stop-color="#010306"/>
      <stop offset="1" stop-color="#000"/>
    </radialGradient>
    <radialGradient id="_Áåçûìÿííûé_ãðàäèåíò_75-2" data-name="Áåçûìÿííûé ãðàäèåíò 75" cx="70.11" cy="61.63" fx="70.11" fy="61.63" r="8.33" gradientTransform="matrix(1,0,0,1,0,0)" xlink:href="#_Áåçûìÿííûé_ãðàäèåíò_75"/>
    <radialGradient id="_Áåçûìÿííûé_ãðàäèåíò_75-3" data-name="Áåçûìÿííûé ãðàäèåíò 75" cx="65.79" cy="27.9" fx="65.79" fy="27.9" r="4.94" gradientTransform="translate(29 -31.77) rotate(35.99) scale(1 .66)" xlink:href="#_Áåçûìÿííûé_ãðàäèåíò_75"/>
    <radialGradient id="_Áåçûìÿííûé_ãðàäèåíò_75-4" data-name="Áåçûìÿííûé ãðàäèåíò 75" cx="12.41" cy="88.63" fx="12.41" fy="88.63" r="8.97" gradientTransform="matrix(1,0,0,1,0,0)" xlink:href="#_Áåçûìÿííûé_ãðàäèåíò_75"/>
    <linearGradient id="_Áåçûìÿííûé_ãðàäèåíò_93" data-name="Áåçûìÿííûé ãðàäèåíò 93" x1="75.63" y1="31.02" x2="75.63" y2="15.18" gradientUnits="userSpaceOnUse">
      <stop offset="0" stop-color="#b000d9"/>
      <stop offset="1" stop-color="#e05cff"/>
    </linearGradient>
    <linearGradient id="_Áåçûìÿííûé_ãðàäèåíò_9-5" data-name="Áåçûìÿííûé ãðàäèåíò 9" x1="61.92" y1="101.97" x2="61.92" y2="80.36" xlink:href="#_Áåçûìÿííûé_ãðàäèåíò_9"/>
    <linearGradient id="_Áåçûìÿííûé_ãðàäèåíò_111-2" data-name="Áåçûìÿííûé ãðàäèåíò 111" x1="75.12" y1="48.36" x2="75.12" y2="19.71" xlink:href="#_Áåçûìÿííûé_ãðàäèåíò_111"/>
    <radialGradient id="_Áåçûìÿííûé_ãðàäèåíò_136" data-name="Áåçûìÿííûé ãðàäèåíò 136" cx="-89.77" cy="132.61" fx="-89.77" fy="132.61" r="11.93" gradientTransform="translate(177.61 -101.11) scale(1.67 1.07)" gradientUnits="userSpaceOnUse">
      <stop offset="0" stop-color="#06feff"/>
      <stop offset=".17" stop-color="#04c4c4"/>
      <stop offset=".4" stop-color="#037f7f"/>
      <stop offset=".6" stop-color="#014848"/>
      <stop offset=".78" stop-color="#002121"/>
      <stop offset=".92" stop-color="#000808"/>
      <stop offset="1" stop-color="#000"/>
    </radialGradient>
  </defs>
  <g class="cls-34">
    <g id="Layer_2" data-name="Layer 2">
      <g id="planets">
        <g>
          <path class="cls-2" d="m7.39,38.72s.58-4.99.96-7.73c0,0,3.41-4.76,8.84-8.68l7.24.38s-14.59,11.7-17.03,16.03Z"/>
          <path class="cls-11" d="m17.19,22.31s0,4.01-3.66,7.19c-3.66,3.17-5.26,2.06-5.26,2.06l-.88,6.39,17.03-15.26-7.24-.38Z"/>
          <path class="cls-7" d="m94.75,64.14c0,4.55-.64,8.96-1.85,13.12-2.4,8.37-7.05,15.78-13.26,21.56-4.44,4.14-9.68,7.43-15.45,9.62-5.23,1.99-10.89,3.07-16.82,3.07-.84,0-1.69-.02-2.52-.07h0c-1.24-.06-2.47-.18-3.68-.33-9.15-1.2-17.46-5-24.2-10.66-2.53-2.11-4.83-4.49-6.86-7.09-1.54-1.95-2.93-4.02-4.15-6.21-.29-.52-.57-1.05-.85-1.58,0-.02,0-.03-.02-.05-.29-.57-.56-1.14-.82-1.72h-.01c-.82-1.81-1.54-3.68-2.12-5.6-.44-1.38-.81-2.8-1.11-4.24-.01,0-.01-.03-.01-.04-.21-1.01-.39-2.03-.53-3.06C.16,68.66,0,66.42,0,64.14c0-1.31.05-2.62.17-3.9.06-.82.15-1.63.26-2.44.61-4.66,1.91-9.1,3.79-13.23.92-2.03,1.98-3.98,3.17-5.85,1.98-3.12,4.32-5.98,6.96-8.55,8.53-8.3,20.18-13.41,33.02-13.41.5,0,1,.01,1.49.02.53.02,1.06.04,1.59.08,2.72.18,5.38.58,7.95,1.2,1.5.36,2.97.78,4.41,1.28.98.33,1.94.7,2.89,1.1.71.3,1.4.61,2.09.94.12.06.24.11.36.17,4.6,2.25,8.77,5.21,12.39,8.76.52.5,1.02,1.02,1.52,1.55.33.36.66.73.98,1.1.55.62,1.08,1.27,1.6,1.92,1.89,2.4,3.55,4.98,4.94,7.72,1.63,3.18,2.91,6.57,3.78,10.12.91,3.66,1.39,7.48,1.39,11.42Z"/>
          <path class="cls-9" d="m68.15,21.55c-.16.02-.31.03-.47.07-.53.1-.95.05-1.48-.1-.38-.11-.65-.26-1.05-.33-.58-.09-1.11-.34-1.68-.41-.61-.08-1.13-.32-1.71-.53-.45-.16-.69-.11-1.13,0-.44.11-.74-.07-1.13-.23-.44-.19-.87-.22-1.33-.31-1.2-.25-2.39-.63-3.58-.94-.74-.19-1.42-.19-2.18-.2-.59,0-1.13.16-1.72.16-.39,0-.73-.07-1.13-.12-.4-.07-.81,0-1.22-.05-.6-.09-.92-.18-1.53,0-.45.15-.81.13-1.26.16-.5.02-1.07.16-1.56.27-.89.21-1.86.37-2.77.35-.56,0-1.38-.16-1.91.03-.35.12-.52.49-.76.74-.46.48-1.03.9-1.41,1.44-.39.53-.82,1.08-.79,1.76.03.58.3,1.27.56,1.8.26.57.35,1.08-.23,1.46-.73.48-1.58.93-2.42,1.17-.56.16-1.06.26-1.53-.14-.17-.15-.28-.44-.49-.55-.22-.11-.45,0-.69.07-.59.17-1.17.37-1.77.47-.37.06-.69.25-1.05.32-.44.08-.75-.24-1.2-.13-.63.15-1.27.41-1.92.44-.47.02-1.06-.18-1.45-.42-.23-.13-.29-.26-.55-.19-.21.05-.53.31-.65.48-.16.22-.21.51-.37.74-.16.25-.32.5-.47.77-.27.53-.59,1.02-.94,1.49-.25.33-.42.77-.69,1.08-.14.16-.44.28-.62.4-.49.35-1.01.66-1.49,1.03-.92.72-1.79,1.52-2.73,2.22-.71.53-1.72.85-2.53,1.18-.51.21-1.04.35-1.54.57-.16.07-.47.14-.61.26-.18.16-.28.44-.44.66-.44.54-.91,1.08-1.25,1.71-.21.36-.33.73-.46,1.13-.18.53-.47,1.03-.65,1.56-.37,1.12-.44,2.28-.85,3.39-.24.65-.58,1.24-.88,1.83-.51,1-.58,2.19-.73,3.3-.08.65-.05,1.4.07,2.03.12.68.09,1.39.08,2.09,0,.74-.48,1.46-.94,2.02-.43.52-1.08.71-1.55,1.18-.4.39-.89.85-1.06,1.41-.07.25,0,.53-.05.79-.11.58-.25,1.13-.34,1.73-.09.73-.11,1.42-.11,2.16,0,.37-.02.75,0,1.12.02.35.15.68.17,1.04.02.25-.03.49,0,.74.05.28.16.57.22.84.16.66.29,1.3.41,1.96.11.61.35,1.21.54,1.8.26.81.44,1.64.59,2.47.12.62.12,1.27.21,1.91.07.51.19,1.03.21,1.54.02.77-.16,1.54-.17,2.33,0,1.31.52,2.63.82,3.9.09.35.18.72.28,1.07-3.25-6.43-5.09-13.69-5.09-21.38,0-9.35,2.71-18.07,7.39-25.42,1.99-3.12,4.32-5.98,6.96-8.55,8.54-8.3,20.18-13.41,33.03-13.41,1.04,0,2.05.03,3.07.1,6.32.4,12.3,2.05,17.7,4.69Z"/>
          <path class="cls-12" d="m50.4,86.4s4.42,6.53,10.28,11.83c5.85,5.3,6.71,8.86,6.71,8.86,0,0,11.06-4.63,18.96-15.58,7.89-10.96-35.95-5.1-35.95-5.1Z"/>
          <path class="cls-15" d="m19.28,101.14c-4.9-4.1-8.96-9.18-11.87-14.93-1.83-3.62-3.21-7.49-4.07-11.56,0,0,0-.02,0-.04-.66-3.16-1.01-6.43-1.01-9.78,0-9.35,2.71-18.07,7.39-25.42,1.99-3.12,4.32-5.98,6.96-8.55,8.54-8.3,20.18-13.41,33.03-13.41,1.04,0,2.05.03,3.07.1,3.21.21,6.33.74,9.34,1.55-3.7-1.21-7.61-1.98-11.66-2.24-1.02-.07-2.04-.1-3.07-.1-12.84,0-24.49,5.11-33.03,13.41-2.64,2.56-4.97,5.42-6.96,8.55C2.71,46.07,0,54.78,0,64.14c0,3.35.35,6.62,1.01,9.78,0,.02,0,.03,0,.04.85,4.07,2.24,7.95,4.07,11.56,2.92,5.75,6.98,10.83,11.87,14.93,5.19,4.35,11.32,7.61,18.04,9.42-5.81-1.9-11.13-4.89-15.72-8.73Z"/>
          <path class="cls-23" d="m58.4,18.06c-2.57-.62-5.23-1.02-7.95-1.2-.53-.04-1.06-.06-1.59-.08,1.13.63,2.18,1.74,2.44,2.88.43,1.95,1.06,3.76,1.42,5.71.36,1.92.29,4.3-.58,6.04-.55,1.1-1.2,2.04-2.07,2.94-.62.63-1.15.98-1.59,1.76-.44.76-.86,1.5-1.36,2.22-.74,1.08-1.52,2.23-2.37,3.22-.3.36-.63.61-.9,1.03-.34.52-.5,1.01-.87,1.42-.85.95-2.17,1.48-3.34,1.91-1.52.57-2.81,1.21-4.24,1.97-2.01,1.06-3.66,2.42-6.01,2.48-.78.02-1.59-.09-2.37-.02-.97.08-1.87.55-2.83.73-.84.16-1.68.33-2.52.47-1.38.21-2.52.68-3.85,1-1.73.43-3.54.32-5.28.56-1.57.21-2.93.4-4.49.02-2.41-.6-3.7-1.74-3.19-4.3.34-1.68.22-2.96-.64-4.25-1.88,4.13-3.18,8.57-3.79,13.23,1.14.48,2.44.73,3.45.83,3.51.36,7.29-1.21,10.5-2.41,1.64-.62,3.31-1.52,5.08-1.72,1.86-.2,3.5.03,5.36-.43,6.41-1.58,12.73-3.82,18.45-7.21,2.37-1.4,3.42-3.4,5.07-5.43,1.45-1.77,3.08-3.24,4.81-4.72,1.7-1.45,3.2-2.89,4.21-4.92,1.07-2.14,1.98-4.49,2.47-6.84.52-2.48-.12-4.87-1.43-6.89Zm-.32,6.44c-.1.53-.17,1.1-.33,1.6-.41,1.27-1.17,2.58-2.36,3.25-.55.31-1.28.12-1.6-.43-.17-.3-.17-.68-.23-1.01-.12-.65-.2-1.29-.19-1.96.02-1.61-.04-3.16-.19-4.77.17.91-.04-1.35,1.38-1.97.67-.3,1.68-.03,2.19.49.64.65.79,1.75,1.03,2.6.21.76.44,1.4.3,2.2Z"/>
          <path class="cls-14" d="m51.22,100.13c-.14.02-.27.05-.4.06l.94.09c-.12-.03-.32-.1-.54-.15Zm0,0c-.14.02-.27.05-.4.06l.94.09c-.12-.03-.32-.1-.54-.15Zm42.14-47.41c-.02,1.24-.37,2.47-.4,3.72-.03,1.66-.31,2.95-.74,4.55-.3,1.1-.86,1.91-1.23,2.97-.42,1.22-1.02,2.26-1.64,3.38-1.23,2.24-2.46,4.48-2.99,7.02-.48,2.29-.58,4.22-1.72,6.32-1.09,2.02-2.74,3.7-3.91,5.66-.55.94-.93.89-1.76,1.48-.93.66-1.78,1.7-2.68,2.43-1.94,1.55-3.71,2.62-6.06,3.5-1.47.56-2.9,1-4.46,1.24-1.02.16-2.02,0-3.03.17-1.6.26-3.12.74-4.66,1.24-2.53.82-5.11,1.29-7.63,2.07-1.76.54-3.48.86-5.27,1.24-1.09.23-1.97.82-3.1.59-1.14-.24-2.18-.62-3.3-.97-1.43-.44-2.61-.47-4.15-.47-2.05,0-4.43.31-6.45-.08-2.28-.44-4.55-1.05-6.83-1.52-1.38-.29-2.43-.86-3.69-1.45-1.18-.55-2.45-.71-3.68-1.1-1.3-.41-2.55-1.02-3.88-1.35,2.03,2.6,4.33,4.98,6.86,7.09,6.74,5.66,15.05,9.46,24.2,10.66,1.21.15,2.44.27,3.68.33h0c2.68-.61,5.3-1.4,8-2.23,4.49-1.4,8.37-4.11,12.86-5.43,1.67-.5,3.17-1.04,4.73-1.81,1.15-.57,2.37-.72,3.53-1.22,4.17-1.77,7.31-5.82,9.17-9.79.84-1.8,1.65-3.84,3.16-5.19.62-.56,1.36-1.05,1.9-1.68.61-.69,1.02-1.55,1.56-2.3.95-1.34,1.87-2.69,2.82-4.04.12-.16.23-.32.32-.49,1.21-4.16,1.85-8.57,1.85-13.12,0-3.94-.48-7.76-1.39-11.42Zm-43.46,47.75c.17-.11.45-.34.63-.39.18-.06.45,0,.69.05.35-.05.7-.09,1.03.05.19.09.55.26.63.48.09.21-.03.34-.17.48-.18.18-.32.18-.57.23-.52.1-1.03.19-1.57.14-.32-.03-.8-.05-1-.35-.19-.29.09-.53.33-.69Zm3.11,6.18c-.29.37-.58.75-.96,1.03-.36.28-.76.45-1.15.67-.96.54-1.95,1.12-3.03,1.4-.43.11-.86.09-1.31.12-.54.05-1.07.06-1.61.07-.64.01-1.26.14-1.9.18-.64.03-1.27.05-1.91.09-1.06.07-2-.11-3-.47-.9-.33-1.83-.75-2.64-1.29-.57-.38-1.06-.92-1.55-1.4-.46-.43-.83-.89-1.09-1.47-.09-.21-.19-.43-.14-.66.02-.11.07-.2.07-.23.18-.14.36-.27.53-.34.34-.15.72-.22,1.08-.26.87-.12,1.82.03,2.69.1.52.04.98.07,1.49,0,.68-.1,1.36-.31,2.02-.49,1.6-.43,3.17-.77,4.82-.95,1.64-.18,3.36-.36,5.01-.08.62.1,1.37.28,1.91.64.4.27.72.7.94,1.13.38.73.22,1.59-.27,2.22Zm12.55-4.11c-.29.34-.71.54-1.07.79-.5.35-1.03.63-1.55.93-.44.26-.86.47-1.32.68-.45.21-.91.42-1.36.65-.49.25-1.02.42-1.54.6-.38.14-.79.31-1.2.24-.33-.07-.7-.2-.94-.45-.36-.38-.3-.79-.18-.96,0-.35-.1-.85,0-1.19.07-.2.31-.5.42-.7.42-.76,1.02-1.31,1.65-1.91.55-.53,1.08-.93,1.82-1.19.83-.28,1.78-.35,2.64-.46.94-.11,2.53-.18,2.95.9.29.75.19,1.44-.33,2.07Zm-13.8-2.26c-.12-.03-.32-.1-.54-.15-.14.02-.27.05-.4.06l.94.09Z"/>
          <path class="cls-8" d="m89.58,42.6v.19c-.06,1.31-.59,2.21-1.06,3.4-.38.96-.82,1.82-1.31,2.73-.83,1.52-1.22,2.95-1.83,4.58-.95,2.55-1.43,5.16-2.92,7.48-1.34,2.07-1.65,4.61-2.74,6.82-1.23,2.47-3.11,4.24-5.13,6.04-.9.81-1.65,1.78-2.46,2.66-.86.93-1.53,2.13-2.56,2.87-2.23,1.62-4.67,3.02-6.85,4.73-1.31,1.02-2.24,2.38-3.68,3.23-1.44.86-3,1.46-4.43,2.33-1.29.79-2.56,1.64-3.96,2.21-1.6.64-2.93.45-4.57.53-1.82.08-3.7.56-5.41,1.15-1.42.5-2.61,1.01-4.06.5-.96-.34-1.83-.97-2.84-1.18-2.35-.48-5.03,0-7.42-.06-1.87-.05-3.93-.48-5.76-.85-1.8-.35-3.27-1.61-5.01-2.12-2.15-.63-4.66-.09-6.74-.91-.85-.33-1.66-1.01-2.41-1.48-.16-.1-.32-.2-.48-.3-.29-.52-.57-1.05-.85-1.58.51.21,1.02.44,1.54.69,2.72,1.3,6.11,1.1,9.04,1.61,3.3.58,6.6,1.44,9.93,1.82,1.35.15,2.71.14,4.05,0,1.88-.21,3.83-.18,5.68-.5,3.22-.57,6.36-2.09,9.7-1.66.62.08,1.31.41,1.94.4.93-.03,1.57-.84,2.32-1.31,1.32-.83,2.71-.67,3.87-1.76,1.14-1.07,2.4-1.76,3.79-2.46,3.62-1.84,6.55-4.83,9.39-7.67,2.38-2.37,4.69-4.88,6.32-7.84,1.6-2.91,1.28-6.37,2.48-9.39.87-2.16,1.6-4.19,3.01-6.09.68-.91,1.51-1.69,2.23-2.56.77-.93,1.24-1.94,1.83-2.98.65-1.16,1.47-2.23,1.99-3.46.49-1.18.45-2.22.43-3.45-.02-1.35,0-2.72,0-4.07,1.89,2.4,3.55,4.98,4.94,7.72Z"/>
          <path class="cls-1" d="m82.06,31.86c-.5-.53-1-1.05-1.52-1.55-3.62-3.55-7.79-6.51-12.39-8.76-.12-.06-.24-.11-.36-.17-.69-.33-1.38-.64-2.09-.94-.95-.4-1.91-.77-2.89-1.1.31.2.67.36.79.42.59.3,1.07.5,1.48,1.03.4.52.58.91.61,1.57.02.62.11,1.26.22,1.88.1.57.38,1.11.5,1.68.06.34.11.64.22.98.25.79.51,1.57.68,2.39.3,1.46-.48,2.67-1,4-.82,2.11-1.34,4.25-1.95,6.43-.48,1.72-1.42,3.42-2.72,4.66-1.27,1.23-3.15,1.51-4.29,2.84-1,1.17-2.23,2.28-3.64,2.94-1.63.78-3.35,1.38-5.08,1.91-1.24.37-2.54.4-3.79.73-1.55.39-2.97,1.17-4.43,1.8-1.55.67-3,1.53-4.56,2.2-1.57.66-3.03,1.56-4.59,2.2-.76.31-1.56.46-2.33.73-1.6.56-3.15,1.58-4.85,1.78-.59.07-1.19.21-1.77.21-.47.01-.89.06-1.34.23-1.48.58-2.39,2.25-4.09,2.26-1.56,0-3.1-.06-4.65.12-.75.09-1.5.04-2.25.05-.22,0-.51.05-.73-.04-.25-.1-.53-.34-.78-.48-.56-.31-1.1-.71-1.6-1.09-.98-.76-2.28-.34-3.41-.57-.34-.07-.84-.03-1.14-.2-.7-.42-1.58-1.28-2.15-1.76-.12,1.28-.17,2.59-.17,3.9,0,2.28.16,4.52.48,6.72.14,1.03.32,2.05.53,3.06,0,.01,0,.03.01.04.3,1.44.67,2.86,1.11,4.24.58,1.92,1.3,3.79,2.12,5.6h.01c1.29.21,2.62.38,3.92.19,1.85-.27,3.69-.56,5.57-.49,1.76.08,3.4.68,5.12.97,1.93.32,3.94.58,5.9.71,1.79.11,3.57.26,5.35.46,1.34.16,2.68.42,4.02.51,3.48.24,6.88-.67,10.3-1.03,1.71-.18,3.41-.61,5.09-.97,1.03-.22,2.03-.49,2.94-1.05,1.2-.75,1.96-1.9,3.03-2.81,1.18-1.01,2.41-1.99,3.64-2.93,1.05-.8,2.04-1.67,3.14-2.38.84-.55,1.68-1.07,2.47-1.69,1.55-1.22,2.78-2.63,4.06-4.11,1.79-2.08,2.53-4.97,3.25-7.55.65-2.37,1.1-4.74,2.4-6.87.64-1.04,1.12-2.24,1.42-3.42.19-.74.26-1.57.6-2.27.54-1.14,1.6-1.96,2.25-3.04.51-.85,1.08-1.64,1.44-2.58.7-1.85,1.23-3.65,1.53-5.62.22-1.45.69-2.78,1.14-4.17.07-.23.14-.46.2-.7-.32-.37-.65-.74-.98-1.1Zm-61.65,32.37c.1-.25,1.87-.94,2.14-1.02,0,.01-.03.02-.06.03l-1.16.5c1.28-.43,3.59.87,2.47,2.34-.33.43-1.19.64-1.7.72-.51.09-.83-.08-1.14-.52-.26-.38-.45-1.04-.52-1.49-.03-.16-.1-.4-.03-.56Zm-14.11,12.76c-1.38-.38-2.3-.89-3.15-2.05-.55-.75-1.03-1.5-1.18-2.42-.12-.76-.42-1.44-.24-2.2.14-.6.38-1.26.66-1.82.31-.63.77-1.28.81-1.49,1.38-.12,2.67-.17,4.05-.18,1.54,0,3.08.19,4.63.2.7.01,1.4.04,2.09-.11.67-.13,1.32-.31,2-.42,1.18-.2,2.28-.34,3.39.25.84.45,1.23,1.38,1.62,2.22.22.48.35.82.35,1.36.01.65-.03,1.29-.11,1.94-.03.24-.06.49-.1.73-.97,2.12-3.64,2.82-5.63,3.56-2.91,1.07-6.2,1.24-9.19.43Zm21.3,4.54c-.62,1.56-3.23,2.12-4.73,2.18-.74.03-1.63-.12-2.28-.51-.36-.22-.74-.64-.95-1.01-.17-.28-.55-.8-1.32-.57.16-.86.43-1.68.79-2.47.34-.38.7-.74,1.07-1.08.7-.63,1.48-1.18,2.32-1.61,1.31-.66,2.68-.17,3.94.41.85.39,1.51.97,1.69,1.9.21,1.06-.14,1.81-.53,2.76Zm17.54-.3c-.48,1.15-1.15,1.41-2.21,1.95-1.24.63-2.75,1.1-4.15,1.11-.72.01-1.39-.33-2.04-.59-.43-.17-.9-.28-1.24-.6-.94-.86-1.09-2.12-.51-1.86-.36-.77-.59-1.56-.68-2.39.16-.13.26-.3.31-.51.5-.94,1.43-1.72,2.35-2.24,1.64-.94,3.73-1.05,5.48-.32.77.32,1.26.71,1.84,1.3.27.28.65.54.86.88.52.87.36,2.39,0,3.27Zm5.39-.18c-.27.22-.79.65-1.14.58-.29-.06-.84-.65-.75-.96l-.19-.19c.42-.65.84-1.31,1.25-1.98.64.28,1.21.24,1.6.94.36.65-.29,1.22-.77,1.61Zm13.41-31.45c-.53.71-1.23,1.38-2.05,1.72-1.03.43-2.41.75-2.46-.8-.04-.91.11-1.57.52-2.41.59-1.19,1.15-1.49,2.29-2.08.42.05.86.15,1.18.26.64.21,1.25.78,1.34,1.46.1.71-.41,1.32-.82,1.85Zm12.51-6.74c-.5,1.56-1.17,3.07-1.86,4.55-.84,1.82-.94,3.69-1.36,5.61-.24,1.08-.75,2.27-1.81,2.69-.46.18-.91.14-1.42.14-.46,0-1.31.17-1.28.57-.27-.75-.73-1.76-.91-2.61-.19-.94-.27-1.95-.42-2.89-.16-.99-.23-1.98-.33-2.98-.08-.93-.27-1.91-.26-2.85.04-3.1,1.75-6.96,4.66-8.39.89-.43,1.77-.63,2.75-.47,1.14.17,1.79.48,2.3,1.57.69,1.5.42,3.52-.06,5.06Z"/>
          <path class="cls-20" d="m62.66,45.81c-.15.08-.29.15-.42.22-.26-.04-.51-.05-.72-.03l1.14-.19Z"/>
          <path class="cls-22" d="m3.2,67.01c-.07.01-.15.01-.23.02.19-.12.26-.12.23-.02Z"/>
          <path class="cls-3" d="m56.46,17.63l8.32-3.28s13.23,5.14,21.57,16.4l.52,7.19s-15.76-6.04-30.41-20.31Z"/>
          <path class="cls-16" d="m86.68,90.79s-6.97,7.56-12.24,9.25l-4.32,1.32s-19.73-7.1-20.81-19.44c-.91-10.37,16.83-26.29,21.63-28.19,4.8-1.89,10.42-.82,10.42-.82l5.31,37.89Z"/>
          <path class="cls-21" d="m81.37,52.9c-4.16-1.32-22.14,6.96-26.97,25.54-.98,3.77,8.14,18.09,19.04,21.59,3.62,1.16,20.2-13.32,20.89-23.14.69-9.81-6.77-22.04-12.95-24Z"/>
          <path class="cls-24" d="m55.56,80.62c2.57-21.04,21.7-27.89,25.86-26.57,3.01.95,7.42,5.37,9.95,9.72-2.61-5.37-6.51-9.75-10-10.86-4.16-1.32-22.14,6.96-26.97,25.54-.34,1.31.54,3.9,2.29,6.86-.96-2.02-1.25-3.68-1.13-4.68Z"/>
          <path class="cls-25" d="m20.38,103.16s4.29,1.57,7.41.72c0,0,1.2-10.14-2.62-16.63-3.82-6.49-10.3,3.32-10.3,3.32l-1.48,6.21s3.6,4.34,6.99,6.39Z"/>
          <path class="cls-26" d="m24.1,101.52l2.75-.74s1.33-5.62-.98-11.96c-2.61-7.2-12.19-12.57-13.61-12.69-1.42-.12-2.82,3.12-2.82,3.12l14.66,22.26Z"/>
          <path class="cls-29" d="m67.39,107.08l-4.57,5.94s-7.93,3.84-15.88,1.98l-5.77-3.89,26.22-4.03Z"/>
          <path class="cls-27" d="m7.38,83.71c.48-2.18,2.4-5.81,4.12-6.16s9.87,7.38,11.75,12.36c1.88,4.98.93,10.49.84,11.62s-9.33-2.01-14-5.84c-4.66-3.83-2.72-11.97-2.72-11.97Z"/>
          <path class="cls-18" d="m23.26,89.9c-1.89-4.98-10.03-12.71-11.75-12.36-.66.14-1.36.76-1.99,1.6.39-.35.78-.6,1.16-.68,1.72-.35,10.02,5.8,11.87,10.79,2.27,6.13,1.02,10.55.8,12.48.45.03.73-.03.75-.22.09-1.13,1.04-6.64-.84-11.62Z"/>
          <path class="cls-13" d="m48.98,68.77c-2.05-.96.27-9.93,2.29-11.89,2.01-1.95,7.25,2.61,7.94,6.34.69,3.73-5.55,7.73-10.23,5.54Z"/>
          <path class="cls-5" d="m51.03,68.09c-1.64-.79.22-8.24,1.83-9.86,1.61-1.62,5.81,2.17,6.36,5.26.56,3.1-4.44,6.42-8.2,4.6Z"/>
          <path class="cls-4" d="m64.77,14.36s.41,5.05,6.1,11.24c5.68,6.19,15.47,5.16,15.47,5.16l.52,7.19s-20.82-9.2-30.41-20.31l8.32-3.28Z"/>
          <g>
            <path class="cls-28" d="m81.1,59.1c-.24.2-.75.56-.34.85.11.08.21.04.32.07.09.03.11.1.22.06.33-.13.2-1.07-.18-.88l-.03-.1Z"/>
            <path class="cls-28" d="m100.73,50.64c-.24.2-.75.56-.34.85.11.08.21.04.32.07.09.03.11.1.22.06.33-.13.2-1.07-.18-.88l-.03-.1Z"/>
            <path class="cls-28" d="m92.11,85.51c-.24.2-.75.56-.34.85.11.08.21.04.32.07.09.03.11.1.22.06.33-.13.2-1.07-.18-.88l-.03-.1Z"/>
            <path class="cls-28" d="m82.82,62.53c.15-.08.31-.13.47-.13.04.2.22.6-.07.76-.24.13-.17-.3-.29-.41l-.11-.23Z"/>
            <path class="cls-28" d="m51.65,64.63c.31.12.62.25.93.39.1-.09.25-.07.37-.15.15-.1.29-.31.34-.48.09-.26-.05-.48-.17-.68-.08-.14-.16-.33-.28-.43-.14-.11-.43-.07-.58,0-.19.09-.32.28-.45.45-.12.16-.25.43-.26.63,0,.22.17.45.33.56l-.23-.29Z"/>
            <path class="cls-28" d="m7.48,88.24c.31.12.62.25.93.39.1-.09.25-.07.37-.15.15-.1.29-.31.34-.48.09-.26-.05-.48-.17-.68-.08-.14-.16-.33-.28-.43-.14-.11-.43-.07-.58,0-.19.09-.32.28-.45.45-.12.16-.25.43-.26.63,0,.22.17.45.33.56l-.23-.29Z"/>
            <path class="cls-28" d="m93.58,100.57c.31.12.62.25.93.39.1-.09.25-.07.37-.15.15-.1.29-.31.34-.48.09-.26-.05-.48-.17-.68-.08-.14-.16-.33-.28-.43-.14-.11-.43-.07-.58,0-.19.09-.32.28-.45.45-.12.16-.25.43-.26.63,0,.22.17.45.33.56l-.23-.29Z"/>
            <path class="cls-28" d="m87.39,92.01c.31.12.62.25.93.39.1-.09.25-.07.37-.15.15-.1.29-.31.34-.48.09-.26-.05-.48-.17-.68-.08-.13-.16-.33-.28-.43-.14-.11-.43-.07-.58,0-.19.09-.32.28-.45.45-.12.16-.25.43-.26.63,0,.22.17.45.33.56l-.23-.29Z"/>
            <path class="cls-28" d="m1.45,32.33c.79.31,1.58.64,2.35.98.25-.22.63-.18.93-.38.38-.25.72-.79.87-1.23.22-.67-.12-1.22-.43-1.73-.21-.34-.4-.84-.72-1.08-.37-.27-1.08-.16-1.46.02-.47.22-.82.71-1.13,1.14-.29.4-.64,1.08-.65,1.59-.02.55.42,1.13.82,1.41l-.58-.73Z"/>
            <path class="cls-28" d="m53.66,3.59c.79.31,1.58.64,2.35.98.25-.22.63-.18.93-.38.38-.25.72-.79.87-1.23.22-.67-.12-1.22-.43-1.73-.21-.34-.4-.84-.72-1.08-.37-.27-1.08-.16-1.46.02-.47.22-.82.71-1.13,1.14-.29.4-.64,1.08-.65,1.59-.02.55.42,1.13.82,1.41l-.58-.73Z"/>
            <path class="cls-28" d="m60.6,72.48c-.13.09-.24.21-.33.35.13.16.19.31.41.37.09.03.18.03.25-.04.09-.09.04-.19.07-.27.06-.21.12-.27,0-.46-.07-.12-.12-.16-.25-.16-.09,0-.28.02-.33.12l.18.09Z"/>
            <path class="cls-28" d="m61.31,77.44c-.02.05-.26.67.05.49.16-.09.1-.33,0-.4l.02-.06-.06-.03Z"/>
            <path class="cls-28" d="m76.95,86.46c-.21.27-.24.38-.33.67.09.08.26.13.38.12.18,0,.19-.07.2-.24,0-.14.06-.25.03-.39-.04-.14-.17-.28-.33-.19l.06.03Z"/>
            <path class="cls-28" d="m63.77,73.08c.12.11.19.25.22.41-.17.04-.19-.12-.21-.25-.04-.21.06-.14.15-.31.02,0,.04,0,.05.01l-.22.14Z"/>
            <path class="cls-28" d="m78.76,59.69c-.13.09-.24.21-.33.35.08.1.04.27.22.26.13,0,.24-.15.3-.25.07-.12.08-.22.09-.36,0-.07,0-.36-.12-.17l-.16.17Z"/>
            <path class="cls-28" d="m76.73,24.8c.15-.04.35-.12.5-.12.04,0,.1.03.15.04.16.01.17-.02.24.11.09.15.13.25.1.43-.09.59-.93-.3-.64-.51l-.36.06Z"/>
            <path class="cls-28" d="m13.11,25.85c-.26.08-.66.11-.7.41-.03.26.4.53.62.6.39.13,1.02.19,1.22-.25.11-.26.03-.76-.13-.98-.32-.46-.99-.28-1.5-.08l.49.29Z"/>
            <path class="cls-28" d="m80.6,87.11c-.12-.91-.28-1.8.52-2.28.44-.26,1.24-.35,1.66-.04.3.22.56.64.75.95.28.46.2.46.06.88-.33.96-.56,1.6-1.52,1.6-1.26,0-1.46-.98-1.48-2.2v1.1Z"/>
            <path class="cls-28" d="m81.16,61.61c.35-.1.65-.28.91-.55-.25-.16-.81-.48-.91,0v.56Z"/>
            <path class="cls-28" d="m9.49,84.69c.35-.1.65-.28.91-.55-.25-.16-.81-.48-.91,0v.56Z"/>
            <path class="cls-28" d="m9.49,92.31c.35-.1.65-.28.91-.55-.25-.16-.81-.48-.91,0v.56Z"/>
            <path class="cls-28" d="m63.08,65.06c.35-.43.86-1.22,1.49-.79.37.25.47.91.12,1.18-.33.24-.63.31-1,.42-.28.08-.7-.11-.62-.53v-.28Z"/>
            <path class="cls-28" d="m74.97,84.66c.35-.43.86-1.22,1.49-.79.37.25.48.91.12,1.18-.33.24-.63.31-1,.42-.28.08-.7-.11-.62-.53v-.28Z"/>
            <path class="cls-28" d="m73.18,19.7c.55.09,1.48.14,1.42.91-.04.44-.56.86-.96.69-.37-.16-.58-.39-.85-.66-.21-.21-.25-.66.15-.8l.24-.14Z"/>
            <path class="cls-28" d="m71.23,89.74c.35-.43.86-1.22,1.49-.79.37.25.48.91.12,1.18-.33.24-.63.31-1,.42-.28.08-.7-.11-.62-.53v-.28Z"/>
            <path class="cls-28" d="m55.03,64.41c-.45.28-1.2.64-1.28,1.25-.05.37.13.59.46.75.29.14.71.15,1,0,.41-.21.89-.55,1.07-.99.13-.32.11-.53-.04-.85-.08-.17-.24-.37-.42-.43-.57-.2-.92.36-1.34.62l.55-.36Z"/>
            <path class="cls-28" d="m56.48,62.77c.24.09.45.22.62.41-.24.08-.51.28-.76.19-.32-.12-.38-.42-.31-.73.04-.17.34-.47.52-.39.09.04.1.16.13.23.06.16.06.13-.02.3h-.18Z"/>
            <path class="cls-28" d="m68.87,60.07c-1.19,1.04-2.3,2.28-2.93,3.77-.32.76.25.8.94.66,1.33-.26,2.68-.63,3.99-.97.78-.2,1.9-.61,2.44-1.27.42-.51.59-1.38.5-2.02-.13-.89-.76-1.24-1.58-1.47-1.85-.51-4.49,1.49-5.18,3.2l1.82-1.9Z"/>
            <path class="cls-28" d="m62.26,66.82c.39.01.74.1,1.07.28-.1.11-.06.27-.12.4-.07.2-.26.4-.44.51-.3.19-.79.26-1.11.13-.99-.38.53-1.56.87-1.14l-.27-.18Z"/>
            <path class="cls-28" d="m6.74,104.81c-.13.09-.24.21-.33.35.13.16.19.31.41.37.09.03.18.03.25-.04.09-.09.04-.19.07-.28.06-.21.12-.27,0-.46-.07-.12-.12-.16-.25-.16-.09,0-.28.02-.33.12l.18.09Z"/>
            <path class="cls-28" d="m7.45,109.76c-.02.05-.26.67.05.49.16-.09.1-.33,0-.4,0-.02.01-.04.02-.06l-.06-.03Z"/>
            <path class="cls-28" d="m9.9,105.4c.12.11.19.25.23.41-.17.04-.19-.12-.21-.25-.04-.21.06-.14.15-.31.02,0,.04,0,.05.01l-.22.14Z"/>
            <path class="cls-28" d="m8.39,99.15c.38.01.74.1,1.07.28-.1.11-.06.27-.12.4-.07.2-.26.4-.44.51-.3.19-.79.26-1.11.13-.99-.38.53-1.56.87-1.14l-.27-.18Z"/>
            <path class="cls-28" d="m71.23,20.58c.34.24.7.41.96.73.3.36.59.69.82,1.1.12.21.39.66-.02.71-.45.06-1.23-.53-1.56-.75-.55-.39-1.09-.75-1.49-1.31-.2-.28-.51-.78-.31-1.12.17-.29.42-.34.73-.33.33,0,.52.1.78.31.12.1.7.68.5.84l-.42-.18Z"/>
            <path class="cls-28" d="m75.54,58.36c-.16.12-1.42.82-.82,1.12.32.16.95.12,1.28-.02.29-.12.58-.31.4-.65-.37-.67-1.29-.29-1.77,0l.91-.45Z"/>
            <path class="cls-28" d="m84.58,17.26c-.41.3-3.56,2.05-2.06,2.8.81.41,2.39.29,3.21-.06.73-.31,1.47-.79,1.01-1.63-.92-1.69-3.24-.72-4.44.02l2.28-1.14Z"/>
            <path class="cls-28" d="m9.95,88.82c.13.74.28,1.54.92,2.03.66.5,1.41.3,2.07-.08.48-.28.94-.59,1.41-.88.28-.17.52-.21.53-.61.01-.42-.38-.99-.62-1.31-.29-.38-.88-.84-1.33-1.01-.99-.37-2.88,0-2.85,1.34l-.13.52Z"/>
            <path class="cls-28" d="m76.14,90.27c.09.52.2,1.08.65,1.42.47.35.99.21,1.45-.06.34-.2.66-.41.99-.62.19-.12.36-.15.37-.42,0-.3-.26-.69-.43-.92-.2-.27-.61-.59-.93-.71-.69-.26-2.02,0-2,.94l-.09.36Z"/>
          </g>
          <circle class="cls-32" cx="82.11" cy="86.01" r="8.97" transform="translate(-26.77 38.22) rotate(-22.63)"/>
          <circle class="cls-31" cx="70.11" cy="61.63" r="8.33"/>
          <path class="cls-10" d="m75.43,24.65c-1.05,1.45-3.7,1.33-5.9-.27-2.21-1.6-3.14-4.08-2.09-5.53,1.05-1.45,3.7-1.33,5.9.27s3.14,4.08,2.09,5.53Z"/>
          <circle class="cls-33" cx="12.41" cy="88.63" r="8.97"/>
          <path class="cls-17" d="m64.91,15.18s2.17,9.24,8.29,12.72c7.74,4.41,13.14,2.86,13.14,2.86,0,0-6.92-.24-13.31-4.6-5.34-3.64-8.12-10.97-8.12-10.97Z"/>
          <path class="cls-6" d="m50.4,86.4l4.11-6.04s5.27,14.98,18.93,19.68l-2.99,1.93s-13.93-3.96-20.05-15.57Z"/>
          <path class="cls-19" d="m58.17,19.71s19.7,19.83,33.88,28.65c0,0-1.37-5.42-5.19-10.41,0,0-11.9-3.91-28.69-18.24Z"/>
          <ellipse class="cls-30" cx="27.98" cy="40.6" rx="19.89" ry="12.75" transform="translate(-17.71 22.06) rotate(-33.34)"/>
        </g>
      </g>
    </g>
  </g>
</svg>