<?xml version="1.0" encoding="UTF-8"?>
<svg xmlns="http://www.w3.org/2000/svg" xmlns:xlink="http://www.w3.org/1999/xlink" viewBox="0 0 99.24 97.8">
  <defs>
    <style>
      .cls-1 {
        fill: url(#_Áåçûìÿííûé_ãðàäèåíò_494-2);
      }

      .cls-1, .cls-2, .cls-3, .cls-4, .cls-5, .cls-6, .cls-7, .cls-8, .cls-9, .cls-10, .cls-11, .cls-12, .cls-13, .cls-14, .cls-15, .cls-16, .cls-17, .cls-18, .cls-19, .cls-20, .cls-21, .cls-22, .cls-23, .cls-24, .cls-25, .cls-26, .cls-27 {
        fill-rule: evenodd;
      }

      .cls-1, .cls-2, .cls-6, .cls-18, .cls-22, .cls-23, .cls-24, .cls-25, .cls-26, .cls-27 {
        mix-blend-mode: screen;
      }

      .cls-2 {
        fill: url(#_Áåçûìÿííûé_ãðàäèåíò_796);
      }

      .cls-2, .cls-7, .cls-9, .cls-23 {
        opacity: .5;
      }

      .cls-3 {
        fill: #f5cefa;
      }

      .cls-4 {
        fill: #ea9cf4;
      }

      .cls-28 {
        isolation: isolate;
      }

      .cls-5 {
        fill: #f2c4f8;
      }

      .cls-6 {
        fill: url(#_Áåçûìÿííûé_ãðàäèåíò_494-4);
      }

      .cls-7, .cls-9, .cls-20 {
        mix-blend-mode: multiply;
      }

      .cls-7, .cls-20 {
        fill: #7d72b3;
      }

      .cls-8 {
        fill: #d374f4;
      }

      .cls-9 {
        fill: #54469b;
      }

      .cls-10 {
        fill: #8b40e0;
      }

      .cls-11 {
        fill: #00c4ff;
      }

      .cls-12 {
        fill: #ff77f4;
      }

      .cls-13 {
        fill: #b04fe2;
      }

      .cls-14 {
        fill: #ff61c7;
      }

      .cls-15 {
        fill: url(#_Áåçûìÿííûé_ãðàäèåíò_469);
      }

      .cls-16 {
        fill: url(#_Áåçûìÿííûé_ãðàäèåíò_460-2);
      }

      .cls-17 {
        fill: url(#_Áåçûìÿííûé_ãðàäèåíò_460);
      }

      .cls-18 {
        fill: url(#_Áåçûìÿííûé_ãðàäèåíò_494-5);
      }

      .cls-19 {
        fill: url(#_Áåçûìÿííûé_ãðàäèåíò_479);
      }

      .cls-20 {
        opacity: .4;
      }

      .cls-21 {
        fill: #fffff8;
      }

      .cls-22 {
        fill: url(#_Áåçûìÿííûé_ãðàäèåíò_494);
      }

      .cls-23 {
        fill: url(#_Áåçûìÿííûé_ãðàäèåíò_796-2);
      }

      .cls-24 {
        fill: url(#_Áåçûìÿííûé_ãðàäèåíò_494-3);
      }

      .cls-25 {
        fill: url(#_Áåçûìÿííûé_ãðàäèåíò_486);
      }

      .cls-26 {
        fill: url(#_Áåçûìÿííûé_ãðàäèåíò_494-7);
      }

      .cls-27 {
        fill: url(#_Áåçûìÿííûé_ãðàäèåíò_494-6);
      }
    </style>
    <radialGradient id="_Áåçûìÿííûé_ãðàäèåíò_460" data-name="Áåçûìÿííûé ãðàäèåíò 460" cx="18.89" cy="29.7" fx="18.89" fy="29.7" r="77.42" gradientUnits="userSpaceOnUse">
      <stop offset="0" stop-color="#ff9aff"/>
      <stop offset=".09" stop-color="#fb94ff"/>
      <stop offset=".21" stop-color="#f083ff"/>
      <stop offset=".34" stop-color="#df67ff"/>
      <stop offset=".49" stop-color="#c740ff"/>
      <stop offset=".64" stop-color="#a810ff"/>
      <stop offset=".68" stop-color="#9f00ff"/>
      <stop offset=".74" stop-color="#9800f8"/>
      <stop offset=".83" stop-color="#8700e4"/>
      <stop offset=".93" stop-color="#6a00c5"/>
      <stop offset="1" stop-color="#5200ab"/>
    </radialGradient>
    <radialGradient id="_Áåçûìÿííûé_ãðàäèåíò_460-2" data-name="Áåçûìÿííûé ãðàäèåíò 460" cx="21.08" cy="25.22" fx="21.08" fy="25.22" r="76.1" xlink:href="#_Áåçûìÿííûé_ãðàäèåíò_460"/>
    <radialGradient id="_Áåçûìÿííûé_ãðàäèåíò_494" data-name="Áåçûìÿííûé ãðàäèåíò 494" cx="31.09" cy="17.17" fx="31.09" fy="17.17" r="17.02" gradientUnits="userSpaceOnUse">
      <stop offset="0" stop-color="#fff"/>
      <stop offset="1" stop-color="#623964"/>
    </radialGradient>
    <radialGradient id="_Áåçûìÿííûé_ãðàäèåíò_494-2" data-name="Áåçûìÿííûé ãðàäèåíò 494" cx="33.8" cy="23.32" fx="33.8" fy="23.32" r="5.92" xlink:href="#_Áåçûìÿííûé_ãðàäèåíò_494"/>
    <radialGradient id="_Áåçûìÿííûé_ãðàäèåíò_494-3" data-name="Áåçûìÿííûé ãðàäèåíò 494" cx="30.16" cy="22.77" fx="30.16" fy="22.77" r="6.24" xlink:href="#_Áåçûìÿííûé_ãðàäèåíò_494"/>
    <radialGradient id="_Áåçûìÿííûé_ãðàäèåíò_494-4" data-name="Áåçûìÿííûé ãðàäèåíò 494" cx="25.75" cy="16.77" fx="25.75" fy="16.77" r="14.41" xlink:href="#_Áåçûìÿííûé_ãðàäèåíò_494"/>
    <radialGradient id="_Áåçûìÿííûé_ãðàäèåíò_494-5" data-name="Áåçûìÿííûé ãðàäèåíò 494" cx="19.59" cy="11.17" fx="19.59" fy="11.17" r="24.43" xlink:href="#_Áåçûìÿííûé_ãðàäèåíò_494"/>
    <radialGradient id="_Áåçûìÿííûé_ãðàäèåíò_494-6" data-name="Áåçûìÿííûé ãðàäèåíò 494" cx="28.64" cy="15.04" fx="28.64" fy="15.04" r="34.04" xlink:href="#_Áåçûìÿííûé_ãðàäèåíò_494"/>
    <radialGradient id="_Áåçûìÿííûé_ãðàäèåíò_494-7" data-name="Áåçûìÿííûé ãðàäèåíò 494" cx="18.03" cy="15.29" fx="18.03" fy="15.29" r="57.51" xlink:href="#_Áåçûìÿííûé_ãðàäèåíò_494"/>
    <radialGradient id="_Áåçûìÿííûé_ãðàäèåíò_486" data-name="Áåçûìÿííûé ãðàäèåíò 486" cx="35.27" cy="65.37" fx="35.27" fy="65.37" r="45.33" gradientUnits="userSpaceOnUse">
      <stop offset="0" stop-color="#ffff4a"/>
      <stop offset="1" stop-color="#360038"/>
    </radialGradient>
    <radialGradient id="_Áåçûìÿííûé_ãðàäèåíò_469" data-name="Áåçûìÿííûé ãðàäèåíò 469" cx="17.42" cy="82.86" fx="17.42" fy="82.86" r="4.89" gradientUnits="userSpaceOnUse">
      <stop offset="0" stop-color="#6d00c2"/>
      <stop offset=".4" stop-color="#6600bc"/>
      <stop offset=".98" stop-color="#5200ab"/>
      <stop offset="1" stop-color="#5200ab"/>
    </radialGradient>
    <radialGradient id="_Áåçûìÿííûé_ãðàäèåíò_479" data-name="Áåçûìÿííûé ãðàäèåíò 479" cx="96.54" cy="54.42" fx="96.54" fy="54.42" r="5.11" gradientUnits="userSpaceOnUse">
      <stop offset="0" stop-color="#1f0081"/>
      <stop offset=".73" stop-color="#250087"/>
      <stop offset="1" stop-color="#2a008b"/>
    </radialGradient>
    <linearGradient id="_Áåçûìÿííûé_ãðàäèåíò_796" data-name="Áåçûìÿííûé ãðàäèåíò 796" x1="21.17" y1="32.86" x2="27.79" y2="32.86" gradientUnits="userSpaceOnUse">
      <stop offset="0" stop-color="#bdffe8"/>
      <stop offset=".2" stop-color="#8abbaa"/>
      <stop offset=".42" stop-color="#59796e"/>
      <stop offset=".61" stop-color="#33453e"/>
      <stop offset=".78" stop-color="#171f1c"/>
      <stop offset=".91" stop-color="#060807"/>
      <stop offset="1" stop-color="#000"/>
    </linearGradient>
    <linearGradient id="_Áåçûìÿííûé_ãðàäèåíò_796-2" data-name="Áåçûìÿííûé ãðàäèåíò 796" x1="5.4" y1="39.23" x2="34.67" y2="39.23" xlink:href="#_Áåçûìÿííûé_ãðàäèåíò_796"/>
  </defs>
  <g class="cls-28">
    <g id="Layer_2" data-name="Layer 2">
      <g id="planets">
        <g>
          <path class="cls-17" d="m99.24,60.06l-.36,1.29c-.01.06-.03.11-.05.18-.98,3.36-2.3,6.58-3.92,9.61-2.64,4.93-6.07,9.37-10.14,13.16-4.73,4.4-10.3,7.9-16.45,10.24-5.56,2.11-11.59,3.26-17.9,3.26-.89,0-1.8-.02-2.68-.07h0c-1.32-.07-2.63-.19-3.92-.35-8.47-1.11-16.28-4.32-22.89-9.11-.62-.45-1.23-.91-1.82-1.38,1.16-1,3.61-1.1,3.61-1.1l-3.41-2.71-8.55-4.6c-1.64-2.07-3.12-4.28-4.42-6.61-.31-.55-.61-1.11-.9-1.68,0-.02-.02-.03-.03-.05-.3-.61-.59-1.22-.87-1.83h0c-.87-1.93-1.64-3.92-2.26-5.96-.46-1.47-.86-2.98-1.18-4.52,0-.01,0-.03,0-.04-.22-1.07-.41-2.16-.56-3.26-.34-2.34-.51-4.72-.51-7.15,0-.56,0-1.13.03-1.68.02-.83.07-1.66.15-2.47.06-.81.15-1.62.25-2.42,0-.06.01-.11.02-.18.15-1.12.33-2.21.56-3.3.31-1.57.7-3.12,1.17-4.63.63-2.12,1.4-4.17,2.31-6.15.87-1.92,1.86-3.78,2.97-5.57,3.44-1.82,5.64-2.77,5.64-2.77,0,0,58.7-11.65,59.61-12.65.9-.99,5.35-.37,5.35-.37,2.75,1.81,5.32,3.88,7.67,6.18.55.53,1.08,1.09,1.62,1.65.35.38.7.78,1.04,1.17.58.66,1.15,1.35,1.7,2.04,2.01,2.56,3.78,5.31,5.26,8.22.58,1.12,1.11,2.27,1.6,3.44,0,0,0,.02,0,.03,4.53,17.72-1.06,32.75-1.06,32.75,1.24-.42,2.37-.58,3.34-.61Z"/>
          <path class="cls-17" d="m99.24,60.06l-.36,1.29c-.01.06-.03.11-.05.18-.98,3.36-2.3,6.58-3.92,9.61-2.64,4.93-6.07,9.37-10.14,13.16-4.73,4.4-10.3,7.9-16.45,10.24-5.56,2.11-11.59,3.26-17.9,3.26-.89,0-1.8-.02-2.68-.07h0c-1.32-.07-2.63-.19-3.92-.35-8.47-1.11-16.28-4.32-22.89-9.11-.62-.45-1.23-.91-1.82-1.38,1.16-1,3.61-1.1,3.61-1.1l-3.41-2.71-8.55-4.6c-1.64-2.07-3.12-4.28-4.42-6.61-.31-.55-.61-1.11-.9-1.68,0-.02-.02-.03-.03-.05-.3-.61-.59-1.22-.87-1.83h0c-.87-1.93-1.64-3.92-2.26-5.96-.46-1.47-.86-2.98-1.18-4.52,0-.01,0-.03,0-.04-.22-1.07-.41-2.16-.56-3.26-.34-2.34-.51-4.72-.51-7.15,0-.56,0-1.13.03-1.68.02-.83.07-1.66.15-2.47.06-.81.15-1.62.25-2.42,0-.06.01-.11.02-.18.15-1.12.33-2.21.56-3.3.31-1.57.7-3.12,1.17-4.63.63-2.12,1.4-4.17,2.31-6.15.87-1.92,1.86-3.78,2.97-5.57,3.44-1.82,5.64-2.77,5.64-2.77,0,0,58.7-11.65,59.61-12.65.9-.99,5.35-.37,5.35-.37,2.75,1.81,5.32,3.88,7.67,6.18.55.53,1.08,1.09,1.62,1.65.35.38.7.78,1.04,1.17.58.66,1.15,1.35,1.7,2.04,2.01,2.56,3.78,5.31,5.26,8.22.58,1.12,1.11,2.27,1.6,3.44,0,0,0,.02,0,.03,4.53,17.72-1.06,32.75-1.06,32.75,1.24-.42,2.37-.58,3.34-.61Z"/>
          <path class="cls-16" d="m97.8,47.38c0,1.79-.1,3.55-.3,5.28-.29,2.69-.81,5.31-1.55,7.84,0,.06-.03.11-.05.17-.92,3.16-2.16,6.18-3.68,9.03-2.48,4.63-5.71,8.8-9.53,12.36-4.44,4.14-9.68,7.43-15.45,9.62-5.23,1.99-10.89,3.07-16.82,3.07-.84,0-1.69-.02-2.52-.07h0c-1.24-.06-2.47-.18-3.68-.33-7.96-1.04-15.29-4.06-21.5-8.56-.93-.66-1.83-1.37-2.7-2.1-.24-.2-.48-.4-.71-.61-2.25-1.95-4.31-4.13-6.15-6.48-1.54-1.95-2.93-4.02-4.15-6.21-.29-.52-.57-1.05-.85-1.58,0-.02,0-.03-.02-.05-.29-.57-.56-1.14-.82-1.72h-.01c-.82-1.81-1.54-3.68-2.12-5.6-.44-1.38-.81-2.8-1.11-4.24,0-.01,0-.03,0-.04-.21-1.01-.39-2.03-.53-3.06-.32-2.2-.48-4.44-.48-6.72,0-.53.01-1.06.03-1.58.02-.78.07-1.56.14-2.32.06-.76.14-1.52.24-2.27,0-.06,0-.11.02-.17.14-1.05.31-2.08.52-3.1.29-1.48.66-2.93,1.1-4.35.59-1.99,1.32-3.92,2.17-5.78.92-2.03,1.98-3.98,3.17-5.85.82-1.3,1.71-2.55,2.66-3.75,1.32-1.7,2.76-3.3,4.3-4.8C25.93,5.11,37.58,0,50.42,0c.5,0,1,.01,1.49.02.53.02,1.06.04,1.59.08,1.47.1,2.93.26,4.36.49.02,0,.03.01.05.01,1.2.18,2.38.42,3.54.7,1.5.36,2.97.78,4.41,1.28.98.33,1.94.7,2.89,1.1.71.3,1.4.61,2.09.94.12.06.24.11.36.17,4.6,2.25,8.77,5.21,12.39,8.76.52.5,1.02,1.02,1.52,1.55.33.36.66.73.98,1.1.55.62,1.08,1.27,1.6,1.92,1.89,2.4,3.55,4.98,4.94,7.72,1.63,3.18,2.91,6.57,3.78,10.12.56,2.24.95,4.54,1.17,6.89.15,1.49.22,3,.22,4.53Z"/>
          <path class="cls-22" d="m27.29,28.5s-1.26,2.79-.21,5.63c1.05,2.84,3.98.95,7.49,0,3.51-.95,7.11-4.64,9.38-6.92,2.27-2.28,4.45-5.4,4.26-8.44-.19-3.03-3.39-5.02-3.39-5.02,0,0,1.16-1.48.19,4.46-.98,5.94-2.31,8.06-3.58,9-1.27.94-5.14,3.2-7.25,4.46-2.11,1.26-4.47,2.57-5.86,2.26-1.4-.31-2.13-3.44-1.03-5.43Z"/>
          <path class="cls-1" d="m33.71,26.45s-1.79,1.59-1.32,2.88,3.88.46,6.06-2.3c2.18-2.76.46-4.99.46-4.99,0,0-.8,4.61-2.92,5.42s-2.81.47-2.81.47c0,0-.33-.37.53-1.48Z"/>
          <path class="cls-24" d="m28.27,28.44s1.75-1.98,3.74-3.83c1.99-1.85,5.43-2.57,5.43-2.57,0,0-2.01-1.06-4.58.43-2.57,1.5-4.58,5.97-4.58,5.97Z"/>
          <path class="cls-6" d="m21.14,28.48s4.05-4.5,8.98-6.44,6.63-2.51,8.81-4.31c2.18-1.8,4.64-3.24,4.64-3.24,0,0-4.8.24-12.12,4.89-7.33,4.64-10.32,7.59-10.3,9.1Z"/>
          <path class="cls-18" d="m11.26,27.58s7.01-7.01,12.51-9.76c5.49-2.75,9.19-4.55,14.12-5.78s12.54-3.38,12.54-3.38l1.37-.69s-15.66.32-25.95,6.51c-10.28,6.2-14.59,13.09-14.59,13.09Z"/>
          <path class="cls-27" d="m19.67,35.67s1.17,9.68,2.85,10.11c1.68.44,7.72.39,16.69-4.2s10.79-3.53,15.82-8.64c5.03-5.11,7.06-10.91,8.62-14.73,1.56-3.82,2.01-8.18,1.53-9.54,0,0,1.69,1.01,1.69,4.8s-1.14,10.16-2.75,13.84c-1.61,3.69-5.78,9.46-10.8,12.31-5.02,2.84-15.06,8.3-24.92,8.22-9.85-.08-8.3-.79-9.31-2.75s.57-9.42.57-9.42Z"/>
          <path class="cls-7" d="m4.31,43.93s1.76,3.9,2.75,7.47c.99,3.57.8,9.63,4.87,10.58,4.07.95,9.76,3.6,11.94,2.94,2.18-.66,10.22-2.11,14.68-1.23,4.46.87,12.6.38,15.44-1.04,2.84-1.42,8.96-5.07,11.87-6.18,2.91-1.11,6.93-4.28,10.39-7.8s3.42-7.53,4.27-9.51c.85-1.99,2.56-9.95,2.37-13.55s-2.37-10.33-2.37-10.33l-2.03-2.14s2.5,9.25,1.36,15.78c-1.14,6.54-.09,9.19-4.64,15.44-4.55,6.25-10.89,11.18-18,13.55-7.11,2.37-11.66,2.08-19.04,2.77-6.89.64-15.46.15-18.87-.74-3.06-.8-7.18-2.85-10.31-7.84-3.13-4.99-4.68-8.16-4.68-8.16Z"/>
          <path class="cls-20" d="m19.98,33.7s.65,10.51,1.99,11.42c1.34.9,4.17,1.28,6.82.38,2.65-.9,11.75-3.88,13.31-4.83,1.56-.95,11.14-5.73,13.03-7.15,1.89-1.42,4.41-6.48,5.26-7.52s3.17-7.3,3.84-9.67c.66-2.37,1.14-5.21,1.14-5.21,0,0,.19-1.33-.95-1.75-1.14-.43-1.32,0-1.32,0,0,0-.24,1.56-1.23,6.06-.99,4.5-14.4,19.94-21.17,23.97-6.77,4.03-13.22,4.17-15.54,3.88s-5.21-7.77-5.16-9.57Z"/>
          <path class="cls-20" d="m19.67,35.67s.28-6.55,1.97-8.74,7.36-6.73,10.72-8.43c3.35-1.71,8.24-4.12,9.94-4.48,1.7-.36,2.9,0,2.9,0,0,0-2.04-1.11-6.73.08-4.69,1.18-9.99,5.54-12.55,6.89-2.56,1.35-6.54,4.62-7.48,6.28s1.25,8.41,1.25,8.41Z"/>
          <path class="cls-20" d="m8.14,28.77l14.54-12.74,9-4.07s8.9-3.02,12.98-3.98c4.07-.95,13.22-1.24,13.22-1.24l4.79.52s-8.34-4.55-20.66-1.23c-12.32,3.32-20.51,7.46-24.11,10.86-3.6,3.4-9.03,10.21-9.75,11.87Z"/>
          <path class="cls-26" d="m7.74,29.33S-.07,38.76,3.72,44.56c3.79,5.8,5.47,14.17,6.56,16.11s13.67,4.87,16.28,4.27c2.61-.6,8.87-2.25,12.97-.66,0,0,7.26-.62,9.34-.62s5.87-1.77,6.76-2.21,5.81-2.02,8.34-3.03,6.57-4.17,8.21-5.43c1.64-1.26,5.94-6.38,6.76-7.96.82-1.58,3.28-10.8,3.92-15.16.64-4.36-1.24-12.76-2.65-15.66s-5.87-5.62-5.87-5.62l.26-1.31,3.47-2.07s6.06,7.94,6.62,14.8c.33,4.02,1.26,12.6.21,16.28-.85,2.96-3.74,11.64-6.27,14.75-2.53,3.1-10.11,11.02-14.15,12.56-4.04,1.53-15.97,3.6-22.99,3.75-5.18.11-16.58-.82-22.18-1.01-5.6-.19-9.61-3.7-11.84-5.48s-1.47-6.63-3.74-10.46S.19,41.44.75,38.67c.56-2.77,6.98-9.34,6.98-9.34Z"/>
          <path class="cls-11" d="m21.45,65.22c-1.2-.28-2.28-.94-3.47-1.24-.67-.16-1.33-.26-1.99-.45-.66-.19-1.41-.32-2.09-.35-1.38-.05-2.81-.37-3.69-1.54-.78-1.05-1.26-2.13-1.62-3.39-.47-1.68-.92-3.36-1.44-5.04-.48-1.55-1.14-2.92-2-4.3-.34-.55-.63-1.1-1-1.63-.34-.48-.81-.94-1.07-1.48h0c-.66-1.41-.89-2.96-.85-4.48.02-.82.25-1.59.43-2.39.24-1.01.5-1.9,1.02-2.81.48-.83.95-1.68,1.43-2.53,1.07-1.88,2.19-3.76,3.52-5.45,1.71-2.15,3.62-4.2,5.55-6.15,1.12-1.14,2.39-2.14,3.67-3.09,1.08-.8,2.08-1.68,3.15-2.49,1.84-1.4,3.94-2.31,6-3.31,2.49-1.2,4.98-2.36,7.57-3.31,3.07-1.12,6.23-2.01,9.43-2.66,3.65-.74,7.5-.89,11.22-.87,2.04,0,4.22-.25,6.17.51,1.1.43,2.38.86,3.34,1.52.22.15.32.18.46.38.09.12.14.28.19.42.15.35.33.93.33,1.3,0,.41-.18.77-.18,1.2,0,.61-.15,1.16-.17,1.76-.03.69-.2,1.23-.3,1.9-.2,1.24-.38,2.43-.86,3.6-.7,1.69-1.16,3.47-1.93,5.14-.23.51-.64.9-.87,1.41-.22.46-.42.84-.68,1.28-.49.82-.89,1.67-1.45,2.45-1.16,1.6-2.34,3.31-3.87,4.58-1.85,1.54-3.87,2.77-5.99,3.9-1.38.73-2.82,1.32-4.22,2.02-1.25.62-2.5,1.26-3.76,1.85-3.24,1.51-6.68,2.63-10.08,3.69-.98.31-1.9.64-2.91.78-.92.13-1.99.43-2.92.41-1-.03-2.05-.26-2.99-.58-1.62-.54-1.78-2.3-1.9-3.76-.09-1.06-.21-2.21-.42-3.25-.16-.87-.23-1.73-.43-2.61-.2-.89-.33-1.8-.34-2.71-.02-1.16.43-2.25.69-3.38.17-.73.25-1.48.55-2.18.43-1.02,1.25-1.9,2.06-2.63.83-.74,1.65-1.47,2.47-2.22.49-.46,1.07-.8,1.59-1.22.91-.73,1.92-1.3,2.96-1.83.82-.43,1.42-1.11,2.18-1.61.78-.51,1.67-1.05,2.5-1.47.73-.36,1.52-.61,2.28-.91.62-.24,1.19-.6,1.82-.81.58-.2,1.18-.26,1.75-.5.56-.23,1.09-.44,1.67-.59.65-.16,1.38-.43,2.04-.45,1.3-.02,1.94.63,2.27,1.89.46,1.72-.07,3.17-.69,4.76-.5,1.28-1.05,2.55-1.54,3.85-.65,1.73-2.19,2.64-3.49,3.82-1.37,1.24-3.06,2.35-4.74,3.1-.53.24-1.1.38-1.62.6-.45.2-.89.45-1.34.69-.29.16-.5.39-.77.57-.24.16-.52.25-.77.41-.6.4-1.23.79-1.89,1.08-.64.29-1.91.46-2.33-.29-.22-.38-.19-.91-.29-1.34-.12-.51-.14-.97-.14-1.5s.1-.92.18-1.43c.08-.49.3-.88.46-1.36.48-1.36,1.42-2.37,2.25-3.49.52-.71.97-1.41,1.58-2.07.9-.96,2.17-1.44,3.44-1.76,1.14-.28,2.84-.62,3.89.04.89.55.27,1.76-.02,2.5-.16.41-.33.83-.47,1.25-.1.31-.14.66-.32.96-.37.62-1.1,1.05-1.65,1.53-.25.21-.65.51-.95.61-.38.12-.79.11-1.17.2-.19.04-.29.28-.52.19-.21-.07-.21-.31-.17-.53.04-.2.13-.4.17-.59,0-.04-.04-.11-.03-.16.16-.59.91-1.33,1.25-1.83.54.22.17.54.07.78-.07.2-.06.39-.11.6-.04.17-.3.48-.11.66.13.13.57-.1.71-.15,1.16-.41,1.91-1.68,2.27-2.83.23-.75.19-2.05-.64-2.38-.62-.24-1.37-.11-2.02-.12-2.35-.04-3.74,2.47-4.99,4.09-.85,1.1-1.5,2.35-1.98,3.65-.34.9-.48,1.83-.72,2.74-.18.67-.4,1.7.63,1.56.6-.09,1.25-.41,1.82-.6.5-.17.94-.35,1.41-.6.74-.4,1.57-.51,2.34-.85.6-.27,1.21-.6,1.81-.89,1.55-.75,3.06-2.28,4.14-3.6.72-.89,1.75-1.56,2.57-2.37.86-.85,1.32-1.91,1.91-2.95.59-1.06.89-2.08,1.15-3.25.24-1.04.86-2.22.54-3.3-.34-1.12-1.78-1.14-2.71-.98-.77.13-1.62.26-2.35.55-1.36.54-2.7,1.12-4.05,1.67-2.13.88-3.9,2.33-5.85,3.52-.99.6-2.06,1.06-2.98,1.78-.68.53-1.33,1.15-1.98,1.73-.46.42-.85.87-1.36,1.23-.67.47-1.34.99-1.84,1.64-.41.53-.88,1.16-1.11,1.8-.17.51,0,.99.02,1.51.04.71-.16,1.37-.19,2.07-.03.74,0,1.5,0,2.24,0,1.45-.22,2.86-.19,4.33.02.9.22,1.85.4,2.74.14.71.43,1.32.48,2.05.02.46.1,1.09.51,1.39.2.15.46.19.69.28.21.08.4.15.6.21.11.04.23.06.35.1.09.05.16.18.25.22.24.1.6.04.85-.01.58-.11,1.15-.25,1.73-.35,1.45-.25,2.92-.22,4.3-.74,1.59-.6,3.07-1.46,4.64-2.1,2.35-.96,4.87-1.66,7.12-2.87,1.01-.55,2.06-1.06,3.1-1.53,2.47-1.11,5.06-2.01,7.23-3.68.83-.64,1.46-1.37,2.17-2.12.4-.43.83-.81,1.19-1.28,1.06-1.38,2.08-2.88,2.89-4.42.35-.65.56-1.36.92-2.01.56-1.01,1.24-1.9,1.76-2.94s.81-2.04,1.15-3.12c.21-.66.36-1.2.34-1.9-.02-1.4.13-2.61.69-3.89.31-.7.75-1.74.52-2.53-.12-.39-.68-.49-1.02-.6-.8-.27-1.63-.47-2.4-.81-.71-.32-1.22-.69-2-.83-.3-.06-.57-.1-.87-.09-.75.04-1.4.56-2.15.53-.25-.01-.42-.09-.68-.14-.39-.07-.81-.02-1.19-.03-.86-.03-1.69-.19-2.56-.18-1.02.01-2.02.1-3.04.16-.95.05-1.91-.03-2.86,0-.61.02-.99.3-1.53.54-.49.22-1.04.31-1.55.5-.45.18-.87.34-1.35.36-.67.01-1.34-.09-1.99.05-.78.18-1.63.51-2.36.82-2.13.91-4.2,2.05-6.41,2.75-1.07.33-2.17.48-3.21.9-.39.16-.73.44-1.08.67-.7.47-1.43.9-2.15,1.35-1.61,1.02-3.14,2.14-4.67,3.28-1.8,1.34-3.52,2.68-5.01,4.38-2.6,2.99-5.31,6.01-7.56,9.28-1.07,1.54-2.27,3.2-3.03,4.92-.02.04-.03.07-.05.11-.42.99-.64,2.03-.5,3.1,0,.02,0,.04,0,.06.12.88.5,1.92.85,2.72s.64,1.65,1.09,2.41c.49.83,1.17,1.52,1.53,2.42.43,1.11.82,2.3,1.15,3.45.43,1.45.76,2.95,1.03,4.43.18.92.33,1.85.76,2.69.61,1.18,1.91,1.62,2.97,2.31.56.37.95.49,1.63.52.95.05,1.85.28,2.76.55,1.94.6,3.88,1.04,5.92,1.01,1.21-.01,2.36-.34,3.55-.49,1.11-.14,2.22-.25,3.32-.43,1-.16,1.98-.44,3-.44.96,0,2.06.16,2.99.42,1.67.46,3.3.83,5.04.76,1.06-.03,2.1-.27,3.15-.34.99-.06,1.93.09,2.91.16,1.74.11,3.41-.32,5.03-.85,1.11-.36,2.03-.89,3.02-1.48.8-.47,1.57-.61,2.45-.84,1.72-.46,3.43-1.09,4.99-1.97,2.04-1.16,3.72-2.87,5.7-4.11,1.12-.7,2.38-1.16,3.47-1.91.9-.61,1.75-1.32,2.51-2.09.89-.9,1.73-1.84,2.62-2.74.68-.69.95-1.55,1.35-2.41.6-1.27.81-2.58,1.03-3.96.23-1.36.83-2.56,1.42-3.82.75-1.61,1.39-3.12,1.55-4.92.13-1.35.31-2.71.31-4.07,0-.87-.15-1.72-.26-2.58-.11-.8-.27-1.57-.44-2.36-.22-.97-.19-1.97-.37-2.95-.16-.84-.42-1.73-.65-2.56-.16-.59-.38-1.2-.62-1.76-.44-.99-1.02-2.02-1.73-2.85-.3-.35-.68-.46-1.02-.71-.26-.2-.32-.37-.62-.52-.42-.21-.84-.42-1.25-.65-.66-.38-1.41-.49-2.07-.85-.63-.34-1.2-.79-1.8-1.17-.68-.43-1.37-.72-1.96-1.28-.58-.56-.96-1.27-1.52-1.83-.57-.58-1.39-.96-2.04-1.46-1.13-.88-2.46-.95-3.73-1.49-.65-.28-1.27-.32-1.95-.46-.77-.16-1.29-.63-2.11-.72-.73-.08-1.45-.09-2.16-.29-.43-.11-.83-.21-1.26-.25-.85-.08-1.67.04-2.51.13-.74.08-1.49.04-2.23.04-.62,0-1.27.06-1.89-.04-1.76-.27-3.69-.24-5.47-.12-1.7.12-3.36.24-4.97.8-1.37.47-2.72.87-4.06,1.42-.92.37-1.72.88-2.58,1.36-2.07,1.16-3.97,2.58-5.94,3.9-2.2,1.46-4.27,3.08-6.39,4.67-1.38,1.04-2.78,2.07-4.14,3.14-.59.47-1.16.96-1.72,1.46,1.32-1.7,2.76-3.3,4.3-4.8C25.93,5.11,37.58,0,50.42,0c.5,0,1,.01,1.49.02.53.02,1.06.04,1.59.08,1.47.1,2.93.26,4.36.49.02,0,.03.01.05.01,1.63.44,3.25.91,4.87,1.4,1.35.41,2.71.78,4.04,1.24.88.3,1.74.69,2.59,1.04.77.33,1.62.61,2.34,1.02,1.17.66,2.26,1.54,3.34,2.34.72.54,1.39,1.16,2.04,1.79.91.89,1.73,1.88,2.42,2.94,1.62,2.51,2.91,5.35,3.52,8.27.52,2.46.45,5.13.35,7.64-.05,1.34-.29,2.81-.56,4.13-.3,1.45-.81,2.8-.96,4.3-.07.73.05,1.48-.07,2.2-.1.59-.32,1.16-.44,1.75-.25,1.25-.62,2.46-1.2,3.61-.78,1.57-1.84,2.87-2.97,4.22-1.27,1.51-2.63,2.96-3.95,4.44-1.33,1.49-2.93,2.69-4.64,3.71-1.33.8-2.69,1.76-4.14,2.32-1.36.54-2.9,1.31-4.37,1.47-1.12.11-2.01.53-2.92,1.21-.55.4-.96.94-1.47,1.37-.46.39-1,.51-1.55.7-1.31.44-2.59.34-3.96.34-1.95,0-3.87.19-5.81.39-.98.1-1.95.18-2.93.12-.88-.05-1.75-.28-2.62-.39-.97-.12-1.94-.14-2.9-.29-.76-.13-1.36-.14-2.13-.04-.62.07-1.24,0-1.86.05-.64.06-1.27.2-1.91.29-2.91.4-5.64,1.74-8.61,1.04Z"/>
          <path class="cls-25" d="m19.1,86.89s11.09,1.95,16.13,1.8c7.62-.22,16.4.73,23.23.92,6.82.19,18.74-5.4,20.92-6.43,2.18-1.02,7.44-4.03,12.03-9.12,4.59-5.09,6.4-13.39,6.4-13.39h-1.92s-.73,3.59-3.49,7.62c-1.66,2.42-4.1,4.54-7.44,7.42-4.8,4.14-11.04,7.34-17.34,8.91-8.38,2.09-15.83,1.51-20.97,2.28-7.44,1.11-23.95-1.52-23.95-1.52l-3.61,1.51Z"/>
          <path class="cls-15" d="m16.17,81.4s1.77,4.6,2.93,5.49c0,0,2.44.15,3.61-1.1l-3.41-2.71-3.13-1.68Z"/>
          <path class="cls-19" d="m97.96,52.09s1.19,5.2,1.28,7.97c0,0-1.85,1.17-3.34.61,0,0,1.75-6.36,2.06-8.58Z"/>
          <path class="cls-14" d="m65.86,2.58s9.89.99,12.2,2.61c0,0-1.64,1.83-3.47,2.07,0,0-8.02-4.45-8.73-4.68Z"/>
          <path class="cls-14" d="m7.46,20.98l4.05-.64,1.59-2.13s-2.91,1.28-5.64,2.77Z"/>
          <path class="cls-9" d="m10.75,78.48s19.18,5.57,34.15,5.85c14.97.29,20.59-3.05,27.06-5.55,6.47-2.5,17.1-8.24,20.3-12.48,3.2-4.24,5.69-14.21,5.69-14.21,0,0-3.08,14.96-5.74,17.61s-14.55,10.66-16.63,11.7c-2.08,1.04-7.75,5.34-17.99,4.15,0,0-6.89.97-9.38.78-2.49-.19-6.36,2.32-13.46.02,0,0-9.89-.5-12.05-.97s-11.96-6.9-11.96-6.9Z"/>
          <path class="cls-13" d="m15.41,58.35s15.89,2.75,27.41,1.58,17.74-4.05,21.03-6.2c3.28-2.15,9.72-9.02,12.13-12.15,2.41-3.13,3.62-10.95,3.62-10.95,0,0,.43,7.64-1.53,10.95-1.96,3.31-8.72,9.6-11.48,11.43-2.76,1.83-10.66,6.17-14.78,6.92-4.13.75-10.93,2.84-15.87,1.93-4.93-.9-16.89-.75-20.53-3.51Z"/>
          <path class="cls-10" d="m37.44,83.8s16.55-1.14,22.23-2.4c5.68-1.26,13.16-4.34,18.39-6.26,5.23-1.92,9.18-5.71,12.06-7.82s6.57-10.86,6.57-10.86c0,0-2.36,8.68-5.98,11.52-3.62,2.83-12.88,8.02-23.35,12.67-11.63,5.16-20.68,3.69-29.93,3.16Z"/>
          <path class="cls-11" d="m95.1,63.02c.26-.79.54-1.57.8-2.35-.92,3.16-2.16,6.18-3.68,9.03l-.03.03c-.44.43-.98.77-1.39,1.24-.42.47-.79.94-1.24,1.38-2.16,2.14-4.63,3.98-7.18,5.64-2.62,1.71-5.24,3.33-8.11,4.58-2.2.96-4.45,1.78-6.78,2.37-1.87.48-3.87.69-5.8.78-.98.05-1.94.21-2.91.3-1.21.13-2.45.11-3.64.32-2.06.38-4.18.65-6.27.76-1.79.1-3.57.35-5.36.35-2.3-.01-4.58-.37-6.88-.36-2.23.02-4.48-.08-6.7-.28-1.33-.13-2.63-.38-3.94-.53-1.11-.13-2.18-.37-3.28-.49-.93-.66-1.83-1.37-2.7-2.1-.24-.2-.48-.4-.71-.61,1.26.4,2.51.83,3.78,1.23,1.78.56,3.78.89,5.64,1.12,1.52.19,3.35.33,4.85-.05,1.56-.39,2.72.11,4.14.69.66.27,1.33.4,2.02.6.97.28,1.69.22,2.68.09.87-.11,1.78-.26,2.65-.45.74-.16,1.45-.46,2.2-.56,1.3-.16,2.68-.35,3.98-.12,1.5.26,2.99.41,4.5.17,1.57-.26,3.03-.41,4.62-.42.54,0,.98.05,1.5.14.58.1,1.12-.06,1.69-.12,1.04-.11,1.95-.26,2.96-.57.92-.29,1.8-.7,2.7-1.04,1.76-.66,3.35-1.31,4.91-2.37,1.31-.88,2.76-1.5,4.09-2.35,1.27-.82,2.4-1.85,3.7-2.63,1.37-.83,2.62-1.85,3.93-2.78.83-.59,1.57-1.29,2.4-1.89.72-.52,1.51-.93,2.18-1.52,1.15-.98,2.22-2.04,2.97-3.37.7-1.23,1.28-2.52,1.71-3.86Z"/>
          <path class="cls-12" d="m44.33,36.69s11.43-9.36,16.23-18.48c0,0-13.32,13.69-16.23,18.48Z"/>
          <path class="cls-4" d="m32.31,47.84s7.22.05,15.21-3.28c7.99-3.33,11.99-10.2,11.99-10.2,0,0-5.4,5.16-11.29,8.05-5.89,2.89-10.34,3.6-15.91,5.43Z"/>
          <path class="cls-4" d="m60.85,32.71s.81-2.06,2.32-5.68c1.52-3.61,2.71-5.55,2.71-5.55,0,0-.49,5.52-5.03,11.23Z"/>
          <path class="cls-8" d="m29.84,66.88s10.04,2.44,23.11,0c13.07-2.44,13.64-3.23,17.24-6.06s6.16-6.44,7.58-7.8c1.42-1.37,3.21-6.11,3.21-6.11,0,0-3.7,6.65-9,11.09s-9.66,6.63-18.56,7.95c-8.91,1.33-19.14,1.19-23.58.92Z"/>
          <path class="cls-8" d="m38.64,88.66s9.09.79,12.79,1.54c3.69.76,10.8.73,14.87-.77,4.07-1.5,12.14-5.82,12.14-5.82,0,0-7.53,4.23-16.5,5.17-8.97.95-14.43-.57-23.3-.12Z"/>
          <path class="cls-8" d="m81.09,82.29s5.77-3.88,8.61-6.45c0,0-3.02,4.14-8.61,6.45Z"/>
          <path class="cls-5" d="m37.23,32.94s6.59-4.96,8.68-8.54c2.09-3.58,2.3-5.63,2.3-5.63,0,0,.93,3.49-3.02,7.92s-7.96,6.25-7.96,6.25Z"/>
          <path class="cls-2" d="m21.84,29.48c-.53,2.42-1.07,4.88-.25,7.21.82,2.33,2.08,3.85,3.28,3.97,1.2.13,2.97-2.72,2.91-3.54-.06-.82-1.96-2.97-2.08-5.12s2.21-5.31,2.09-6.51c-.13-1.2-5.06,0-5.94,3.98Z"/>
          <path class="cls-23" d="m22.92,19.6c-.79-.85-6.12,4.13-9.82,7.99s-7.36,8.91-7.68,12.13c-.32,3.22,2.34,8.09,7.14,12.38s17.3,8.21,20.3,6.44,1.9-7.26-.55-8.59c-2.45-1.33-10.4,1.35-14.13-2.57s-2.04-9.18-1.58-13.6c.57-5.41,2.27-9.98,3.85-11.37,1.58-1.39,2.46-2.81,2.46-2.81Z"/>
          <path class="cls-21" d="m6.59,36.26c-1.03,3.49-1.15,7.23,1,10.09,2.15,2.87,3.77.72,4.53-6.28s.32-11.79.32-11.79c0,0-4.56,3.58-5.85,7.97Z"/>
          <path class="cls-3" d="m10.1,48.4c-1.45,1.35,2.02,4.02,2.58,2.73.57-1.29-1.64-3.61-2.58-2.73Z"/>
          <path class="cls-3" d="m6.25,58.97c-.14,2.22,1.13,4.74,5.01,6.19,3.88,1.45,6.92,1.06,6.92,1.06,0,0-4.54-.9-7.04-2.65-2.5-1.75-4.89-4.6-4.89-4.6Z"/>
          <path class="cls-21" d="m22.16,29.83c-1.28-1.7.39-4.01,2.73-5.44s2.63-.99,2.13.25c-.5,1.25-1.27,3.88-2.37,5.19-1.1,1.31-1.73,1-2.49,0Z"/>
          <path class="cls-21" d="m30.6,26.88c-.49-.83.5-3.26,1.84-3.03s1.01.76.39,1.64c-.47.66-1.76,2.18-2.22,1.39Z"/>
          <path class="cls-21" d="m40.31,31.03c-.46-.94,3.28-3.82,3.79-3.52.51.3.18,1.83-.69,2.4-.87.57-2.93,1.45-3.09,1.12Z"/>
        </g>
      </g>
    </g>
  </g>
</svg>